<?xml version="1.0" encoding="UTF-8" standalone="no"?>
<!-- Created with Inkscape (http://www.inkscape.org/) -->

<svg
   xmlns:dc="http://purl.org/dc/elements/1.1/"
   xmlns:cc="http://creativecommons.org/ns#"
   xmlns:rdf="http://www.w3.org/1999/02/22-rdf-syntax-ns#"
   xmlns:svg="http://www.w3.org/2000/svg"
   xmlns="http://www.w3.org/2000/svg"
   version="1.1"
   width="744.09448"
   height="1052.3622"
   id="svg2">
  <defs
     id="defs4" />
  <metadata
     id="metadata7">
    <rdf:RDF>
      <cc:Work
         rdf:about="">
        <dc:format>image/svg+xml</dc:format>
        <dc:type
           rdf:resource="http://purl.org/dc/dcmitype/StillImage" />
        <dc:title></dc:title>
      </cc:Work>
    </rdf:RDF>
  </metadata>
  <g
     id="layer2"
     style="display:inline">
    <g
       transform="matrix(0.74990878,0,0,0.71630825,47.65859,83.802492)"
       id="g3910">
      <path
         d="m 379.78258,230.77555 3.7374,146.9445 5.86869,0.0521 6.67175,-146.0487 z"
         id="path3756"
         style="fill:#ff0000;stroke:none" />
      <path
         d="m 383.58816,377.58114 -110,96 0.83333,0.5 114.5,-96.50001 z"
         id="path3758"
         style="fill:#ff0000;stroke:none" />
      <path
         d="m 383.83367,377.10616 81.80474,104.70017 0.30964,-0.14789 -76.7071,-105.25939 z"
         id="path3760"
         style="fill:#ff0000;stroke:none" />
      <path
         d="m 384.23113,377.64457 45.64298,178.61354 0.78105,-0.62622 -41.80473,-178.1352 z"
         id="path3762"
         style="fill:#ff0000;stroke:none" />
      <path
         d="m 383.60491,378.81614 -36.78799,138.90237 0.92893,0.78105 41.42115,-140.55229 z"
         id="path3764"
         style="fill:#ff0000;stroke:none" />
      <path
         d="m 443.4618,451.8975 23.05814,30.52358 20.58402,54.5383 -6.37868,29.00678 -18.499,11.63948 -16.01449,-4.3161 -10.79516,-10.97709 -2.75174,-10.63292 2.75174,10.63292 10.79516,10.97709 -10.26092,1.36024 -9.58091,-3.81255 9.58091,3.81255 -5.10119,6.44311 5.10119,-6.44311 10.26092,-1.36024 16.01449,4.3161 -4.19502,15.74394 -6.71191,7.6289 6.71191,-7.6289 3.56941,12.63165 -0.37624,10.34589 0.37624,-10.34589 -3.56941,-12.63165 4.19502,-15.74394 18.499,-11.63948 5.45738,18.36101 -1.22802,9.8703 1.22802,-9.8703 8.32198,8.96762 8.69681,4.68557 -8.69681,-4.68557 -8.32198,-8.96762 -5.45738,-18.36101 6.37868,-29.00678 37.06461,37.92058 15.33943,27.3925 3.78453,21.11659 -4.25075,12.15682 2.09221,10.07032 -2.09221,-10.07032 4.25075,-12.15682 5.7523,11.58033 -5.7523,-11.58033 -3.78453,-21.11659 12.23212,10.07867 5.74904,8.88441 -5.74904,-8.88441 9.23558,3.77064 -9.23558,-3.77064 -12.23212,-10.07867 -15.33943,-27.3925 33.05125,17.09263 21.0693,21.9638 5.95002,14.45342 -0.40327,9.56481 0.40327,-9.56481 -5.95002,-14.45342 15.41185,5.21515 8.79117,9.21969 3.78261,9.43999 -3.78261,-9.43999 9.50974,2.21115 -9.50974,-2.21115 -8.79117,-9.21969 10.098,-4.38192 8.88813,1.85666 -8.88813,-1.85666 -10.098,4.38192 -15.41185,-5.21515 -21.0693,-21.9638 27.66209,-4.11829 23.15825,9.41783 14.54633,18.40922 4.09215,15.74531 8.59166,10.28603 -8.59166,-10.28603 -4.09215,-15.74531 10.84338,5.26296 -10.84338,-5.26296 -14.54633,-18.40922 11.0458,-3.51544 6.18071,-7.52239 0.91284,-9.56663 -0.91284,9.56663 -6.18071,7.52239 -11.0458,3.51544 -23.15825,-9.41783 11.5795,-18.54964 11.8151,-4.07393 12.20139,4.58978 7.95068,-2.32099 -7.95068,2.32099 -12.20139,-4.58978 3.7034,-8.81793 -3.7034,8.81793 -11.8151,4.07393 1.17263,-14.78363 -5.35286,-12.79147 5.35286,12.79147 -1.17263,14.78363 -11.5795,18.54964 -27.66209,4.11829 -33.05125,-17.09263 -37.06461,-37.92058 -20.58402,-54.5383 63.63713,5.75486 40.36146,23.43083 21.20536,25.82684 3.03455,19.60516 -5.69822,8.90129 5.69822,-8.90129 7.02735,9.16618 -7.02735,-9.16618 -3.03455,-19.60516 22.41381,10.3535 14.77771,18.05585 4.58303,15.13212 -0.75533,11.34709 0.75533,-11.34709 6.65372,10.14853 -6.65372,-10.14853 -4.58303,-15.13212 12.05191,6.526 7.41336,7.32897 -7.41336,-7.32897 -12.05191,-6.526 -14.77771,-18.05585 12.71809,-2.23985 5.63592,-5.60509 -5.63592,5.60509 -12.71809,2.23985 -22.41381,-10.3535 -21.20536,-25.82684 19.42906,-3.16346 13.81979,6.21068 6.27665,8.74353 -6.27665,-8.74353 10.1496,-2.82435 -10.1496,2.82435 -13.81979,-6.21068 9.13625,-9.55059 12.34156,0.5808 8.54458,4.55938 -8.54458,-4.55938 -12.34156,-0.5808 2.62018,-11.34312 -2.62018,11.34312 -9.13625,9.55059 -19.42906,3.16346 -40.36146,-23.43083 40.19593,-23.49897 27.81923,3.30383 14.54254,12.78184 5.33374,9.47801 -5.33374,-9.47801 12.25784,3.55931 -12.25784,-3.55931 -14.54254,-12.78184 16.62701,-10.42212 10.77189,-0.9821 -10.77189,0.9821 2.93238,-17.7382 7.31435,-5.75542 -7.31435,5.75542 -3.54674,-12.92576 2.52584,-9.81375 -2.52584,9.81375 -5.9101,-9.53034 5.9101,9.53034 3.54674,12.92576 -2.93238,17.7382 -16.62701,10.42212 -27.81923,-3.30383 17.64925,-32.8751 19.2535,-11.54722 18.82173,-0.41802 9.86947,3.51334 -9.86947,-3.51334 10.87827,-10.59506 14.90171,0.89281 12.28299,6.93482 6.23956,8.73513 -6.23956,-8.73513 -12.28299,-6.93482 8.52647,-4.04269 3.21194,-7.96615 -3.21194,7.96615 -8.52647,4.04269 -14.90171,-0.89281 3.60258,-11.46883 7.25178,-4.44111 -7.25178,4.44111 -3.60258,11.46883 -10.87827,10.59506 -18.82173,0.41802 6.99393,-13.22166 11.36714,-2.85141 10.65628,4.35562 -10.65628,-4.35562 -11.36714,2.85141 -0.29102,-13.71089 0.29102,13.71089 -6.99393,13.22166 -19.2535,11.54722 -4.57207,-25.37564 5.23505,-11.67407 -0.81886,-11.29115 0.81886,11.29115 -5.23505,11.67407 -8.83088,-12.47139 -2.33242,-10.5783 2.33242,10.5783 -10.5341,-4.68568 10.5341,4.68568 8.83088,12.47139 4.57207,25.37564 -17.64925,32.8751 -40.19593,23.49897 -63.63713,-5.75486 -23.05814,-30.52358"
         id="path3805"
         style="fill:none;stroke:#ff0000;stroke-width:1;stroke-linecap:butt;stroke-linejoin:miter;stroke-miterlimit:4;stroke-opacity:1;stroke-dasharray:none" />
      <path
         d="m 414.86224,490.49835 14.71557,63.61947 -42.74589,70.96345 -36.85399,25.51312 -36.50821,0.23816 -28.16854,-14.22488 -13.80303,-22.78855 -0.79956,-18.71195 4.86428,-9.35531 -4.86428,9.35531 -7.53481,-8.60762 7.53481,8.60762 0.79956,18.71195 -14.3247,-10.97848 -5.28434,-12.21928 -0.0891,-10.2215 0.0891,10.2215 -8.84047,-8.02025 8.84047,8.02025 5.28434,12.21928 -10.99887,-1.3498 10.99887,1.3498 14.3247,10.97848 13.80303,22.78855 -24.53376,3.85204 -15.39235,-7.2193 -9.27035,-11.39809 -0.84745,-13.07495 4.50345,-10.36805 -4.50345,10.36805 0.84745,13.07495 9.27035,11.39809 -11.37306,1.48602 11.37306,-1.48602 15.39235,7.2193 -11.21637,10.59418 -13.19597,3.20147 13.19597,-3.20147 -1.95673,12.12945 1.95673,-12.12945 11.21637,-10.59418 24.53376,-3.85204 28.16854,14.22488 -20.40449,16.905 -18.0698,0.16632 -13.12407,-8.37551 -4.49273,-9.01601 4.49273,9.01601 -12.57545,-2.34044 12.57545,2.34044 13.12407,8.37551 -12.41135,9.1162 12.41135,-9.1162 18.0698,-0.16632 -4.1361,19.03831 -10.13328,12.73811 10.13328,-12.73811 3.79558,14.17274 -3.79558,-14.17274 4.1361,-19.03831 20.40449,-16.905 36.50821,-0.23816 -11.07034,30.58909 -12.48917,14.4496 -14.94654,4.04898 -9.14362,9.64633 -1.12202,11.64162 1.12202,-11.64162 9.14362,-9.64633 14.94654,-4.04898 -4.06633,11.98776 3.63168,10.38419 -3.63168,-10.38419 4.06633,-11.98776 12.48917,-14.4496 3.0333,22.99099 -6.78153,15.52706 -11.06816,10.17849 -9.87969,1.86194 9.87969,-1.86194 -1.98245,12.39226 1.98245,-12.39226 11.06816,-10.17849 4.1253,14.06214 -4.1253,-14.06214 6.78153,-15.52706 6.31306,10.95612 -6.31306,-10.95612 -3.0333,-22.99099 11.07034,-30.58909 36.85399,-25.51312 -2.9408,49.6631 -26.61335,29.2904 -25.73722,8.94076 -14.58718,-0.30001 -8.52795,-6.36005 8.52795,6.36005 -8.90688,6.54593 8.90688,-6.54593 14.58718,0.30001 -13.94127,18.96269 -13.12698,5.3595 -12.06551,0.42523 12.06551,-0.42523 -7.93496,8.38754 7.93496,-8.38754 13.12698,-5.3595 -2.44227,18.25954 6.41072,13.57112 -0.0134,10.94824 0.0134,-10.94824 -6.41072,-13.57112 2.44227,-18.25954 13.94127,-18.96269 25.73722,-8.94076 -4.04934,23.99862 -9.20544,8.50015 -4.43499,9.90928 4.43499,-9.90928 9.20544,-8.50015 7.51275,14.43698 -1.95819,10.05314 1.95819,-10.05314 12.40806,5.28344 8.0374,8.42197 -8.0374,-8.42197 -12.40806,-5.28344 -7.51275,-14.43698 4.04934,-23.99862 26.61335,-29.2904 12.1216,30.18139 0.0334,18.36465 -9.75457,12.21579 -11.07285,2.72724 11.07285,-2.72724 -0.4647,10.39565 0.4647,-10.39565 9.75457,-12.21579 8.03511,9.71477 10.02987,3.87778 -10.02987,-3.87778 -8.03511,-9.71477 -0.0334,-18.36465 18.03527,18.88188 5.97245,13.77385 9.9368,5.50242 -9.9368,-5.50242 -5.97245,-13.77385 21.3699,9.67297 6.62423,10.68623 -1.4328,10.16806 1.4328,-10.16806 -6.62423,-10.68623 14.0051,-3.81023 12.25897,1.68769 -12.25897,-1.68769 6.24772,-8.85305 -6.24772,8.85305 -14.0051,3.81023 -21.3699,-9.67297 -18.03527,-18.88188 -12.1216,-30.18139 2.9408,-49.6631 42.74589,-70.96345 46.57686,56.4512 16.73192,51.69121 -6.43978,38.38164 -16.30133,22.45884 -21.30655,6.11175 -11.03334,-1.83988 11.03334,1.83988 -10.10907,10.98973 -13.01795,2.42427 -10.51025,-4.54364 10.51025,4.54364 -8.69292,5.5391 8.69292,-5.5391 13.01795,-2.42427 -1.57782,10.60231 1.57782,-10.60231 10.10907,-10.98973 21.30655,-6.11175 0.48906,23.83286 -7.58502,11.00203 -10.2862,3.52946 10.2862,-3.52946 0.46721,11.40412 -0.46721,-11.40412 7.58502,-11.00203 8.36112,17.45629 -3.52014,16.81649 -8.90538,10.1913 -2.95988,11.66273 -6.78841,7.82003 6.78841,-7.82003 2.95988,-11.66273 8.90538,-10.1913 5.83645,13.61267 0.23073,10.35244 -0.23073,-10.35244 8.73541,8.90245 -8.73541,-8.90245 -5.83645,-13.61267 3.52014,-16.81649 12.20478,11.61845 1.30274,9.91614 -1.30274,-9.91614 11.77798,4.77538 6.71596,8.82462 -6.71596,-8.82462 11.24172,-0.76429 -11.24172,0.76429 -11.77798,-4.77538 -12.20478,-11.61845 -8.36112,-17.45629 -0.48906,-23.83286 16.30133,-22.45884 10.16748,17.58934 2.23011,13.68821 -2.23011,-13.68821 13.62776,9.59066 5.7601,8.81494 -5.7601,-8.81494 -13.62776,-9.59066 -10.16748,-17.58934 6.43978,-38.38164 39.03364,27.84961 9.12281,28.8934 -7.14163,25.23012 -11.97807,9.91706 -13.11744,4.67661 -11.62597,-2.36848 11.62597,2.36848 -6.49094,9.32331 -2.15483,9.99022 2.15483,-9.99022 6.49094,-9.32331 13.11744,-4.67661 -3.4649,12.99246 -9.06132,6.58376 9.06132,-6.58376 3.4649,-12.99246 11.97807,-9.91706 2.69496,19.68364 -4.16151,9.28724 4.16151,-9.28724 7.29333,8.70828 -7.29333,-8.70828 -2.69496,-19.68364 7.14163,-25.23012 10.57691,11.46876 3.72501,9.85806 -3.72501,-9.85806 -10.57691,-11.46876 -9.12281,-28.8934 37.68197,4.58087 19.58413,16.1502 3.57309,15.34905 -3.57309,-15.34905 13.4346,1.76006 10.25898,-2.58359 -10.25898,2.58359 -13.4346,-1.76006 -19.58413,-16.1502 23.59905,-11.27668 20.35369,2.19575 11.86679,10.71774 5.02674,11.42783 -5.02674,-11.42783 -11.86679,-10.71774 17.06853,-6.5141 13.86423,1.04567 -13.86423,-1.04567 6.80107,-8.58213 -6.80107,8.58213 -17.06853,6.5141 -20.35369,-2.19575 8.02521,-13.85407 12.40195,-5.35312 5.23992,-9.96203 -5.23992,9.96203 -12.40195,5.35312 -1.32095,-14.28056 1.32095,14.28056 -8.02521,13.85407 -23.59905,11.27668 -37.68197,-4.58087 -39.03364,-27.84961 -16.73192,-51.69121 43.72146,11.02294 22.28481,30.40549 0.32014,29.59717 -11.02971,19.53039 -12.21206,4.76465 -11.07492,-0.16854 11.07492,0.16854 12.21206,-4.76465 -1.99057,12.71263 1.99057,-12.71263 11.02971,-19.53039 6.8087,16.02645 -1.07277,14.75252 4.21316,10.54409 -4.21316,-10.54409 1.07277,-14.75252 9.11622,8.33023 -9.11622,-8.33023 -6.8087,-16.02645 -0.32014,-29.59717 20.31194,9.04524 7.97487,14.26939 1.90703,12.51227 -5.61113,9.47704 5.61113,-9.47704 -1.90703,-12.51227 10.95542,8.48306 10.65359,2.14644 -10.65359,-2.14644 -10.95542,-8.48306 -7.97487,-14.26939 11.05158,-1.45987 -11.05158,1.45987 -20.31194,-9.04524 -22.28481,-30.40549 36.20047,-5.08898 18.29342,7.44361 10.54175,13.46777 -0.021,11.74374 0.021,-11.74374 10.66974,5.10418 -10.66974,-5.10418 -10.54175,-13.46777 11.78417,-0.90569 -11.78417,0.90569 -18.29342,-7.44361 19.39999,-14.60565 14.70014,-1.98752 10.03483,3.1776 -10.03483,-3.1776 9.01345,-6.76078 -9.01345,6.76078 -14.70014,1.98752 6.56152,-12.15277 8.63685,-5.71971 -8.63685,5.71971 -1.97677,-10.48209 1.97677,10.48209 -6.56152,12.15277 -19.39999,14.60565 -36.20047,5.08898 -43.72146,-11.02294 -46.57686,-56.4512 -14.71557,-63.61947"
         id="path3831"
         style="fill:none;stroke:#ff0000;stroke-width:1px;stroke-linecap:butt;stroke-linejoin:miter;stroke-opacity:1" />
      <path
         d="m 366.0409,447.37165 -18.71557,69.61947 -51.38912,55.70974 -52.7145,25.0731 -41.16983,-8.10176 -17.94844,-17.62166 -7.47694,-18.00002 -0.12911,-10.75384 0.12911,10.75384 -8.88857,-7.84573 -9.8026,-1.98082 9.8026,1.98082 8.88857,7.84573 7.47694,18.00002 -13.10342,-5.28366 -8.27092,-8.5235 8.27092,8.5235 -12.39117,1.19829 -9.95274,-4.03048 9.95274,4.03048 12.39117,-1.19829 13.10342,5.28366 17.94844,17.62166 -18.88668,9.78966 -12.74796,-2.10965 -8.06224,-6.69436 8.06224,6.69436 12.74796,2.10965 -6.87446,14.79386 -11.81711,6.01793 11.81711,-6.01793 1.5234,11.08545 -1.5234,-11.08545 6.87446,-14.79386 18.88668,-9.78966 41.16983,8.10176 -21.80545,26.28455 -16.91499,3.55357 -11.76951,-4.55026 -7.45803,-6.92097 7.45803,6.92097 11.76951,4.55026 -11.5046,8.49298 -10.71238,2.01968 10.71238,-2.01968 11.5046,-8.49298 16.91499,-3.55357 -6.52991,19.95369 -7.13227,8.40929 7.13227,-8.40929 3.04578,17.33899 -2.25947,11.88913 2.25947,-11.88913 8.42814,7.63323 -8.42814,-7.63323 -3.04578,-17.33899 6.52991,-19.95369 21.80545,-26.28455 52.7145,-25.0731 -4.48077,66.73903 -23.68986,43.88013 -24.8081,10.112 -15.48516,-4.71199 -9.59066,4.05251 9.59066,-4.05251 15.48516,4.71199 -9.92554,9.00037 9.92554,-9.00037 24.8081,-10.112 -3.4338,29.67163 -14.98681,21.21218 -16.20792,6.38881 -11.71634,-1.98782 11.71634,1.98782 -6.28127,10.80795 -8.61513,5.41621 8.61513,-5.41621 -1.05958,9.9553 1.05958,-9.9553 6.28127,-10.80795 16.20792,-6.38881 -1.08988,18.23838 -6.76033,14.13036 -9.93266,6.32213 9.93266,-6.32213 -0.60022,11.09715 0.60022,-11.09715 6.76033,-14.13036 3.83118,12.34177 -3.79493,10.03353 3.79493,-10.03353 -3.83118,-12.34177 1.08988,-18.23838 14.98681,-21.21218 10.16638,19.86478 1.30874,13.23533 6.83371,7.7055 -6.83371,-7.7055 -1.30874,-13.23533 12.86264,9.04599 3.40942,12.24946 -3.3356,10.38522 3.3356,-10.38522 8.37385,6.99203 -8.37385,-6.99203 -3.40942,-12.24946 -12.86264,-9.04599 -10.16638,-19.86478 3.4338,-29.67163 23.68986,-43.88013 30.96822,46.0083 4.52717,42.88786 -17.00956,32.38705 -20.21045,10.03822 -11.77213,-2.37019 11.77213,2.37019 -10.96676,16.98753 -14.40232,8.15272 -12.31949,-1.42104 -7.82568,-6.3834 7.82568,6.3834 12.31949,1.42104 14.40232,-8.15272 0.54983,17.17204 -5.78227,14.06268 5.78227,-14.06268 5.71845,8.84575 -5.71845,-8.84575 -0.54983,-17.17204 10.96676,-16.98753 20.21045,-10.03822 2.17908,21.55621 -5.45804,16.7918 5.45804,-16.7918 8.08116,10.3217 -8.08116,-10.3217 -2.17908,-21.55621 17.00956,-32.38705 23.57092,28.84959 7.38814,27.3384 -5.26915,16.11999 3.25194,12.5531 -1.66657,10.88163 1.66657,-10.88163 -3.25194,-12.5531 5.26915,-16.11999 15.13865,14.77491 3.61086,14.8612 -3.43619,11.06292 -6.53159,7.74266 6.53159,-7.74266 3.43619,-11.06292 -3.61086,-14.8612 12.55819,5.15274 6.79224,8.12094 -6.79224,-8.12094 -12.55819,-5.15274 -15.13865,-14.77491 -7.38814,-27.3384 17.21125,9.79264 9.38267,13.75225 2.51458,12.47825 -5.01561,9.55299 5.01561,-9.55299 -2.51458,-12.47825 13.08821,3.74202 6.97793,9.38477 -6.97793,-9.38477 10.96225,-0.82114 -10.96225,0.82114 -13.08821,-3.74202 -9.38267,-13.75225 11.66847,0.95866 -11.66847,-0.95866 -17.21125,-9.79264 -23.57092,-28.84959 -4.52717,-42.88786 41.19459,15.62723 22.46772,20.91997 4.53356,26.13711 -4.27644,15.58799 -7.75569,7.33502 7.75569,-7.33502 4.27644,-15.58799 17.90185,15.46047 5.06426,16.39266 -0.5912,11.11207 0.5912,-11.11207 8.86624,8.98036 2.05774,10.93664 -2.05774,-10.93664 10.58204,2.03818 -10.58204,-2.03818 -8.86624,-8.98036 -5.06426,-16.39266 20.859,3.7063 14.38277,8.5756 6.39419,9.3224 -6.39419,-9.3224 -14.38277,-8.5756 14.29553,-2.5042 9.62149,3.63325 -9.62149,-3.63325 -14.29553,2.5042 -20.859,-3.7063 -17.90185,-15.46047 -4.53356,-26.13711 19.33845,3.17656 12.79675,9.44448 5.84902,9.08536 -5.84902,-9.08536 -12.79675,-9.44448 9.88312,-3.92827 -9.88312,3.92827 -19.33845,-3.17656 -22.46772,-20.91997 30.21484,-2.1616 19.54449,10.88007 5.0457,11.00413 8.4906,5.49877 -8.4906,-5.49877 -5.0457,-11.00413 19.12276,1.54023 11.78459,11.54558 11.42032,2.85733 -11.42032,-2.85733 -11.78459,-11.54558 9.67881,-3.60248 -9.67881,3.60248 -19.12276,-1.54023 -19.54449,-10.88007 17.88589,-13.77487 17.59451,-4.04247 14.68541,3.47493 7.96571,6.96362 -7.96571,-6.96362 -14.68541,-3.47493 7.8261,-7.38843 -7.8261,7.38843 -17.59451,4.04247 4.64211,-15.99197 -4.64211,15.99197 -17.88589,13.77487 -30.21484,2.1616 -41.19459,-15.62723 -30.96822,-46.0083 4.48077,-66.73903 51.38912,-55.70974 14.48874,53.74565 -4.35571,29.43017 -17.10489,18.95175 -16.89327,8.09841 -14.48404,-2.27601 -9.12934,-8.34464 -1.78483,-10.43426 1.78483,10.43426 9.12934,8.34464 -12.09481,3.93034 12.09481,-3.93034 14.48404,2.27601 -5.85243,10.12592 5.85243,-10.12592 16.89327,-8.09841 -1.28409,16.18739 -5.73483,11.52961 5.73483,-11.52961 3.87243,11.11064 -3.87243,-11.11064 1.28409,-16.18739 17.10489,-18.95175 7.47448,22.21927 -1.36707,13.52331 -6.32921,10.43426 6.32921,-10.43426 1.36707,-13.52331 8.6015,10.62456 -8.6015,-10.62456 -7.47448,-22.21927 4.35571,-29.43017 23.89533,28.38239 1.77108,32.01501 -12.80439,19.13201 -16.2865,6.27181 -12.91533,-1.42632 -9.09565,-6.45059 -9.76551,-2.29181 9.76551,2.29181 9.09565,6.45059 -9.66745,4.26635 9.66745,-4.26635 12.91533,1.42632 -7.07635,8.21643 7.07635,-8.21643 16.2865,-6.27181 0.44686,13.94318 -6.18226,9.03982 6.18226,-9.03982 -0.44686,-13.94318 12.80439,-19.13201 9.00452,19.93918 -1.3056,17.40814 -7.14646,13.10694 1.48706,11.61097 -1.48706,-11.61097 7.14646,-13.10694 8.48786,11.98553 -0.19518,10.23725 0.19518,-10.23725 -8.48786,-11.98553 1.3056,-17.40814 9.40676,9.11232 -9.40676,-9.11232 -9.00452,-19.93918 -1.77108,-32.01501 20.64821,3.64242 13.93943,10.61467 4.29351,11.89518 -4.29351,-11.89518 12.6656,1.41414 -12.6656,-1.41414 -13.93943,-10.61467 10.46295,-5.92112 -10.46295,5.92112 -20.64821,-3.64242 -23.89533,-28.38239 -14.48874,-53.74565 18.71557,-69.61947"
         id="path3859"
         style="fill:none;stroke:#ff0000;stroke-width:1px;stroke-linecap:butt;stroke-linejoin:miter;stroke-opacity:1" />
      <path
         d="m 321.61331,432.75716 -46.20412,40.73858 -44.9173,25.57364 -35.65682,-1.98229 -16.35592,-13.80044 -6.23949,-22.85583 0.45553,-15.06437 4.10387,-10.72126 -4.10387,10.72126 -0.45553,15.06437 -9.23334,-10.15805 -2.74072,-14.50658 0.73923,-10.75241 -0.73923,10.75241 -5.89727,-6.56921 5.89727,6.56921 2.74072,14.50658 -7.90295,-0.96528 7.90295,0.96528 9.23334,10.15805 6.23949,22.85583 -12.13619,-0.33948 -7.83169,-11.16276 -1.41598,-9.87473 1.41598,9.87473 -6.32672,-2.98018 6.32672,2.98018 7.83169,11.16276 -7.32337,7.38552 -3.87952,9.5341 -5.15945,5.58885 5.15945,-5.58885 3.87952,-9.5341 7.32337,-7.38552 12.13619,0.33948 16.35592,13.80044 -15.36006,17.28546 -12.13926,1.3857 -5.73509,-5.71455 5.73509,5.71455 -5.15667,7.79899 5.15667,-7.79899 12.13926,-1.3857 -4.63796,22.93699 -6.28427,8.10628 -6.66804,1.65167 6.66804,-1.65167 6.28427,-8.10628 3.36294,14.76235 -1.60777,10.23929 1.60777,-10.23929 4.6958,8.99341 -4.6958,-8.99341 -3.36294,-14.76235 4.63796,-22.93699 15.36006,-17.28546 35.65682,1.98229 -27.56263,50.03748 -33.07984,22.68205 -24.11955,1.15931 -16.2613,-11.6028 -6.07739,-13.95416 -1.59918,-14.70012 2.05746,-11.55683 -2.05746,11.55683 -4.07122,-11.49645 0.19389,-10.47861 -0.19389,10.47861 -5.56229,-7.53443 5.56229,7.53443 4.07122,11.49645 1.59918,14.70012 -7.03912,-5.28173 -6.84605,0.63263 6.84605,-0.63263 7.03912,5.28173 6.07739,13.95416 -12.4448,-1.05008 -9.19539,-8.75522 -9.305484,0.55907 -6.538738,6.8187 -3.731276,8.17802 3.731276,-8.17802 6.538738,-6.8187 9.305484,-0.55907 9.19539,8.75522 -8.33448,9.99525 -8.35144,-0.32306 -5.886495,3.72304 5.886495,-3.72304 8.35144,0.32306 -1.87184,10.24588 1.87184,-10.24588 8.33448,-9.99525 12.4448,1.05008 16.2613,11.6028 -18.3043,13.47403 -12.43089,-2.15255 -6.43667,-6.08702 6.43667,6.08702 -7.65384,5.26833 -4.55924,7.38773 4.55924,-7.38773 7.65384,-5.26833 12.43089,2.15255 -9.75653,21.04964 -11.35924,11.65326 -10.7984,3.57859 -9.061998,-4.85425 -5.930775,-8.46697 -5.906477,-2.46244 5.906477,2.46244 5.930775,8.46697 -6.582016,1.92362 6.582016,-1.92362 9.061998,4.85425 -6.739954,11.22332 -6.456855,1.92734 6.456855,-1.92734 6.739954,-11.22332 10.7984,-3.57859 -3.67013,12.74323 -0.60149,12.14715 0.60149,-12.14715 3.67013,-12.74323 11.35924,-11.65326 -0.24211,13.44937 0.24211,-13.44937 9.75653,-21.04964 18.3043,-13.47403 24.11955,-1.15931 -18.66101,41.76311 -26.53652,13.6979 -15.19927,-2.28829 -6.25998,-9.39293 6.25998,9.39293 -8.20167,8.20943 -7.309541,-1.40803 7.309541,1.40803 8.20167,-8.20943 15.19927,2.28829 -17.85422,25.2064 -14.252809,4.43647 -10.49743,-7.8046 -3.813701,-12.17784 3.813701,12.17784 -6.215004,1.88813 6.215004,-1.88813 10.49743,7.8046 -9.455985,9.6968 -8.669582,-0.0326 -6.179686,4.82081 6.179686,-4.82081 8.669582,0.0326 -3.763976,13.21395 -4.740852,7.09546 4.740852,-7.09546 3.763976,-13.21395 9.455985,-9.6968 14.252809,-4.43647 -5.30824,22.37361 -8.703022,13.89529 -10.328047,2.64357 -6.616877,6.66943 6.616877,-6.66943 10.328047,-2.64357 -3.409541,12.2577 1.264008,11.23444 -1.264008,-11.23444 3.409541,-12.2577 8.703022,-13.89529 3.14095,16.56807 6.27728,8.25409 2.31729,10.86667 -2.31729,-10.86667 6.06123,2.85792 -6.06123,-2.85792 -6.27728,-8.25409 -3.14095,-16.56807 5.30824,-22.37361 17.85422,-25.2064 26.53652,-13.6979 -3.32114,42.34098 -8.04908,24.6054 -11.11809,12.0304 -9.39874,1.97264 9.39874,-1.97264 -3.67311,18.31244 -8.17672,8.87934 -6.76572,0.99204 6.76572,-0.99204 8.17672,-8.87934 0.73488,12.29327 -0.73488,-12.29327 3.67311,-18.31244 11.11809,-12.0304 0.40653,19.28441 -3.69941,13.13613 0.0945,10.32163 -0.0945,-10.32163 3.69941,-13.13613 4.30727,9.51921 -4.30727,-9.51921 -0.40653,-19.28441 8.04908,-24.6054 11.15489,32.76801 0.53023,25.77282 -3.13193,15.33063 -6.59518,8.7058 -6.64972,2.24888 -5.64237,-3.61362 5.64237,3.61362 6.64972,-2.24888 6.59518,-8.7058 0.92426,12.31955 -0.92426,-12.31955 3.13193,-15.33063 5.23924,19.83135 -2.21245,13.81383 2.21245,-13.81383 7.40906,6.63787 4.84114,9.21153 -4.84114,-9.21153 6.18799,1.31426 -6.18799,-1.31426 -7.40906,-6.63787 -5.23924,-19.83135 -0.53023,-25.77282 10.5067,14.57019 3.0331,13.51398 -3.0331,-13.51398 7.22249,4.19945 3.46122,9.21031 -3.46122,-9.21031 6.38899,-2.45708 -6.38899,2.45708 -7.22249,-4.19945 -10.5067,-14.57019 -11.15489,-32.76801 3.32114,-42.34098 18.66101,-41.76311 33.07984,-22.68205 -13.0803,52.78371 -14.2292,24.92286 -12.47987,6.74493 -6.81486,-3.79202 6.81486,3.79202 -6.05321,11.83963 6.05321,-11.83963 12.47987,-6.74493 -4.22051,26.17519 -7.88387,12.10295 -8.33336,4.01451 -4.25209,9.42957 4.25209,-9.42957 8.33336,-4.01451 -2.25005,11.43905 1.22359,9.91105 -1.22359,-9.91105 2.25005,-11.43905 7.88387,-12.10295 2.44152,14.87534 -1.83785,12.88432 -5.00083,7.63001 5.00083,-7.63001 0.85246,11.30077 -0.85246,-11.30077 1.83785,-12.88432 4.49173,7.6456 -4.49173,-7.6456 -2.44152,-14.87534 4.22051,-26.17519 14.2292,-24.92286 -0.0261,31.78651 -4.73998,20.93274 -6.35631,9.99769 -6.45558,0.81815 6.45558,-0.81815 6.35631,-9.99769 0.62998,12.57555 -0.62998,-12.57555 4.73998,-20.93274 6.05877,12.95476 0.59628,11.52119 -0.59628,-11.52119 7.45288,6.86394 4.09518,8.40491 -4.09518,-8.40491 7.32183,-1.56134 5.76914,-5.42046 -5.76914,5.42046 -7.32183,1.56134 -7.45288,-6.86394 -6.05877,-12.95476 0.0261,-31.78651 13.0803,-52.78371 27.56263,-50.03748 44.9173,-25.57364 -13.87461,60.69259 -24.39756,29.5185 -21.11833,-0.82131 -13.36931,-10.33973 -6.20197,-10.29247 -1.29262,-10.85006 1.29262,10.85006 -7.10451,-3.83309 7.10451,3.83309 6.20197,10.29247 -8.19796,-0.65434 -5.0562,-5.50108 5.0562,5.50108 -5.85432,5.50513 5.85432,-5.50513 8.19796,0.65434 13.36931,10.33973 -11.1933,7.56753 -6.18803,-1.74876 6.18803,1.74876 -7.63403,11.74436 -8.31122,0.92505 -5.96023,6.61977 5.96023,-6.61977 8.31122,-0.92505 7.63403,-11.74436 11.1933,-7.56753 21.11833,0.82131 -10.24529,26.0356 -11.81578,6.71899 -9.94382,-4.87486 -7.11273,-8.73822 -7.01228,-3.01637 -4.99178,-6.35068 4.99178,6.35068 -6.04855,3.53416 6.04855,-3.53416 7.01228,3.01637 7.11273,8.73822 -6.33283,0.89865 6.33283,-0.89865 9.94382,4.87486 -3.94467,10.74567 0.54747,10.27854 -0.54747,-10.27854 3.94467,-10.74567 11.81578,-6.71899 -0.47658,26.21487 -6.66003,13.9975 -8.02202,7.21013 -6.83856,1.49454 6.83856,-1.49454 -2.97411,9.79646 2.97411,-9.79646 8.02202,-7.21013 -1.66666,10.55979 1.66666,-10.55979 6.66003,-13.9975 5.42546,14.40928 -0.87461,12.42196 0.87461,-12.42196 7.10003,5.17627 -7.10003,-5.17627 -5.42546,-14.40928 0.47658,-26.21487 10.24529,-26.0356 24.39756,-29.5185 3.49705,34.36811 -6.03765,19.81381 -5.4504,7.30161 -1.82497,9.81416 1.82497,-9.81416 5.4504,-7.30161 -0.68753,11.38693 0.68753,-11.38693 6.03765,-19.81381 7.49766,12.42902 2.51763,14.16728 -0.6553,12.83163 0.6553,-12.83163 -2.51763,-14.16728 8.69637,5.19124 3.96865,8.18057 -3.96865,-8.18057 6.77576,-4.06914 6.38041,0.44201 -6.38041,-0.44201 -6.77576,4.06914 -8.69637,-5.19124 -7.49766,-12.42902 -3.49705,-34.36811 13.87461,-60.69259 46.20412,-40.73858"
         id="path3889"
         style="fill:none;stroke:#ff0000;stroke-width:1;stroke-linecap:butt;stroke-linejoin:miter;stroke-miterlimit:4;stroke-opacity:1;stroke-dasharray:none" />
    </g>
    <path
       d="m 399.75104,217.03337 a 28.284271,32.055508 0 1 1 -56.56854,0 28.284271,32.055508 0 1 1 56.56854,0 z"
       transform="matrix(0.74990878,0,0,0.71630825,60.38496,72.545179)"
       id="path3921"
       style="fill:#00bfff;fill-opacity:1;stroke:#00bfff;stroke-width:1;stroke-linecap:round;stroke-miterlimit:4;stroke-opacity:1;stroke-dasharray:none;stroke-dashoffset:0" />
  </g>
  <g
     id="layer4">
    <path
       d="m 380.89486,400.88113 a 10.370899,12.256517 0 1 1 -20.7418,0 10.370899,12.256517 0 1 1 20.7418,0 z"
       transform="matrix(0.42778684,0,0,0.41699408,96.035179,256.05612)"
       id="path3923-1"
       style="fill:#ffff00;fill-opacity:1;stroke:#ff0000;stroke-width:1;stroke-linecap:round;stroke-miterlimit:4;stroke-opacity:1;stroke-dasharray:none;stroke-dashoffset:0;display:inline" />
    <path
       d="m 380.89486,400.88113 a 10.370899,12.256517 0 1 1 -20.7418,0 10.370899,12.256517 0 1 1 20.7418,0 z"
       transform="matrix(0.74990878,0,0,0.71630825,59.67119,71.121419)"
       id="path3923"
       style="fill:#ffff00;fill-opacity:1;stroke:#ff0000;stroke-width:0.68220645;stroke-linecap:round;stroke-miterlimit:4;stroke-opacity:1;stroke-dasharray:none;stroke-dashoffset:0;display:inline" />
    <path
       d="m 380.89486,400.88113 a 10.370899,12.256517 0 1 1 -20.7418,0 10.370899,12.256517 0 1 1 20.7418,0 z"
       transform="matrix(0.42778684,0,0,0.41699408,148.84965,288.14818)"
       id="path3923-1-7"
       style="fill:#ffff00;fill-opacity:1;stroke:#ff0000;stroke-width:1;stroke-linecap:round;stroke-miterlimit:4;stroke-opacity:1;stroke-dasharray:none;stroke-dashoffset:0;display:inline" />
    <path
       d="m 380.89486,400.88113 a 10.370899,12.256517 0 1 1 -20.7418,0 10.370899,12.256517 0 1 1 20.7418,0 z"
       transform="matrix(0.42778684,0,0,0.41699408,210.34217,315.36789)"
       id="path3923-1-7-4"
       style="fill:#ffff00;fill-opacity:1;stroke:#ff0000;stroke-width:1;stroke-linecap:round;stroke-miterlimit:4;stroke-opacity:1;stroke-dasharray:none;stroke-dashoffset:0;display:inline" />
    <path
       d="m 380.89486,400.88113 a 10.370899,12.256517 0 1 1 -20.7418,0 10.370899,12.256517 0 1 1 20.7418,0 z"
       transform="matrix(0.42778684,0,0,0.41699408,238.33877,261.88354)"
       id="path3923-1-7-4-0"
       style="fill:#ffff00;fill-opacity:1;stroke:#ff0000;stroke-width:1;stroke-linecap:round;stroke-miterlimit:4;stroke-opacity:1;stroke-dasharray:none;stroke-dashoffset:0;display:inline" />
    <path
       d="m 380.89486,400.88113 a 10.370899,12.256517 0 1 1 -20.7418,0 10.370899,12.256517 0 1 1 20.7418,0 z"
       transform="matrix(0.31435028,0,0,0.24738594,104.6411,342.53101)"
       id="path3923-1-9"
       style="fill:#ffff00;fill-opacity:1;stroke:#ff0000;stroke-width:1;stroke-linecap:round;stroke-miterlimit:4;stroke-opacity:1;stroke-dasharray:none;stroke-dashoffset:0;display:inline" />
    <path
       d="m 380.89486,400.88113 a 10.370899,12.256517 0 1 1 -20.7418,0 10.370899,12.256517 0 1 1 20.7418,0 z"
       transform="matrix(0.31435028,0,0,0.24738594,126.8884,369.51197)"
       id="path3923-1-9-4"
       style="fill:#ffff00;fill-opacity:1;stroke:#ff0000;stroke-width:1;stroke-linecap:round;stroke-miterlimit:4;stroke-opacity:1;stroke-dasharray:none;stroke-dashoffset:0;display:inline" />
    <path
       d="m 380.89486,400.88113 a 10.370899,12.256517 0 1 1 -20.7418,0 10.370899,12.256517 0 1 1 20.7418,0 z"
       transform="matrix(0.31435028,0,0,0.24738594,153.88511,394.82152)"
       id="path3923-1-9-4-8"
       style="fill:#ffff00;fill-opacity:1;stroke:#ff0000;stroke-width:1;stroke-linecap:round;stroke-miterlimit:4;stroke-opacity:1;stroke-dasharray:none;stroke-dashoffset:0;display:inline" />
    <path
       d="m 380.89486,400.88113 a 10.370899,12.256517 0 1 1 -20.7418,0 10.370899,12.256517 0 1 1 20.7418,0 z"
       transform="matrix(0.31435028,0,0,0.24738594,203.87903,395.29906)"
       id="path3923-1-9-4-8-8"
       style="fill:#ffff00;fill-opacity:1;stroke:#ff0000;stroke-width:1;stroke-linecap:round;stroke-miterlimit:4;stroke-opacity:1;stroke-dasharray:none;stroke-dashoffset:0;display:inline" />
    <path
       d="m 380.89486,400.88113 a 10.370899,12.256517 0 1 1 -20.7418,0 10.370899,12.256517 0 1 1 20.7418,0 z"
       transform="matrix(0.31435028,0,0,0.24738594,298.36753,370.94458)"
       id="path3923-1-9-4-8-2"
       style="fill:#ffff00;fill-opacity:1;stroke:#ff0000;stroke-width:1;stroke-linecap:round;stroke-miterlimit:4;stroke-opacity:1;stroke-dasharray:none;stroke-dashoffset:0;display:inline" />
    <path
       d="m 380.89486,400.88113 a 10.370899,12.256517 0 1 1 -20.7418,0 10.370899,12.256517 0 1 1 20.7418,0 z"
       transform="matrix(0.31435028,0,0,0.24738594,221.3769,432.54709)"
       id="path3923-1-9-4-8-4"
       style="fill:#ffff00;fill-opacity:1;stroke:#ff0000;stroke-width:1;stroke-linecap:round;stroke-miterlimit:4;stroke-opacity:1;stroke-dasharray:none;stroke-dashoffset:0;display:inline" />
    <path
       d="m 380.89486,400.88113 a 10.370899,12.256517 0 1 1 -20.7418,0 10.370899,12.256517 0 1 1 20.7418,0 z"
       transform="matrix(0.31435028,0,0,0.24738594,288.07165,422.32373)"
       id="path3923-1-9-4-8-4-5"
       style="fill:#ffff00;fill-opacity:1;stroke:#ff0000;stroke-width:1;stroke-linecap:round;stroke-miterlimit:4;stroke-opacity:1;stroke-dasharray:none;stroke-dashoffset:0;display:inline" />
    <path
       d="m 380.89486,400.88113 a 10.370899,12.256517 0 1 1 -20.7418,0 10.370899,12.256517 0 1 1 20.7418,0 z"
       transform="matrix(0.31435028,0,0,0.24738594,329.55525,333.69968)"
       id="path3923-1-9-4-8-4-1"
       style="fill:#ffff00;fill-opacity:1;stroke:#ff0000;stroke-width:1;stroke-linecap:round;stroke-miterlimit:4;stroke-opacity:1;stroke-dasharray:none;stroke-dashoffset:0;display:inline" />
    <path
       d="m 380.89486,400.88113 a 10.370899,12.256517 0 1 1 -20.7418,0 10.370899,12.256517 0 1 1 20.7418,0 z"
       transform="matrix(0.20554424,0,0,0.15531929,400.27608,354.81541)"
       id="path3923-1-9-4-8-4-1-7"
       style="fill:#ffff00;fill-opacity:1;stroke:#ff0000;stroke-width:1;stroke-linecap:round;stroke-miterlimit:4;stroke-opacity:1;stroke-dasharray:none;stroke-dashoffset:0;display:inline" />
    <path
       d="m 380.89486,400.88113 a 10.370899,12.256517 0 1 1 -20.7418,0 10.370899,12.256517 0 1 1 20.7418,0 z"
       transform="matrix(0.20554424,0,0,0.15531929,399.09757,388.52084)"
       id="path3923-1-9-4-8-4-1-7-1"
       style="fill:#ffff00;fill-opacity:1;stroke:#ff0000;stroke-width:1;stroke-linecap:round;stroke-miterlimit:4;stroke-opacity:1;stroke-dasharray:none;stroke-dashoffset:0;display:inline" />
    <path
       d="m 380.89486,400.88113 a 10.370899,12.256517 0 1 1 -20.7418,0 10.370899,12.256517 0 1 1 20.7418,0 z"
       transform="matrix(0.20554424,0,0,0.15531929,366.57066,436.13269)"
       id="path3923-1-9-4-8-4-1-7-15"
       style="fill:#ffff00;fill-opacity:1;stroke:#ff0000;stroke-width:1;stroke-linecap:round;stroke-miterlimit:4;stroke-opacity:1;stroke-dasharray:none;stroke-dashoffset:0;display:inline" />
    <path
       d="m 380.89486,400.88113 a 10.370899,12.256517 0 1 1 -20.7418,0 10.370899,12.256517 0 1 1 20.7418,0 z"
       transform="matrix(0.20554424,0,0,0.15531929,332.62953,427.64741)"
       id="path3923-1-9-4-8-4-1-7-2"
       style="fill:#ffff00;fill-opacity:1;stroke:#ff0000;stroke-width:1;stroke-linecap:round;stroke-miterlimit:4;stroke-opacity:1;stroke-dasharray:none;stroke-dashoffset:0;display:inline" />
    <path
       d="m 380.89486,400.88113 a 10.370899,12.256517 0 1 1 -20.7418,0 10.370899,12.256517 0 1 1 20.7418,0 z"
       transform="matrix(0.20554424,0,0,0.15531929,360.4424,467.24539)"
       id="path3923-1-9-4-8-4-1-7-7"
       style="fill:#ffff00;fill-opacity:1;stroke:#ff0000;stroke-width:1;stroke-linecap:round;stroke-miterlimit:4;stroke-opacity:1;stroke-dasharray:none;stroke-dashoffset:0;display:inline" />
    <path
       d="m 380.89486,400.88113 a 10.370899,12.256517 0 1 1 -20.7418,0 10.370899,12.256517 0 1 1 20.7418,0 z"
       transform="matrix(0.20554424,0,0,0.15531929,342.52903,496.94387)"
       id="path3923-1-9-4-8-4-1-7-6"
       style="fill:#ffff00;fill-opacity:1;stroke:#ff0000;stroke-width:1;stroke-linecap:round;stroke-miterlimit:4;stroke-opacity:1;stroke-dasharray:none;stroke-dashoffset:0;display:inline" />
    <path
       d="m 380.89486,400.88113 a 10.370899,12.256517 0 1 1 -20.7418,0 10.370899,12.256517 0 1 1 20.7418,0 z"
       transform="matrix(0.20554424,0,0,0.15531929,260.50464,450.74623)"
       id="path3923-1-9-4-8-4-1-7-14"
       style="fill:#ffff00;fill-opacity:1;stroke:#ff0000;stroke-width:1;stroke-linecap:round;stroke-miterlimit:4;stroke-opacity:1;stroke-dasharray:none;stroke-dashoffset:0;display:inline" />
    <path
       d="m 380.89486,400.88113 a 10.370899,12.256517 0 1 1 -20.7418,0 10.370899,12.256517 0 1 1 20.7418,0 z"
       transform="matrix(0.20554424,0,0,0.15531929,239.76284,452.63185)"
       id="path3923-1-9-4-8-4-1-7-23"
       style="fill:#ffff00;fill-opacity:1;stroke:#ff0000;stroke-width:1;stroke-linecap:round;stroke-miterlimit:4;stroke-opacity:1;stroke-dasharray:none;stroke-dashoffset:0;display:inline" />
    <path
       d="m 380.89486,400.88113 a 10.370899,12.256517 0 1 1 -20.7418,0 10.370899,12.256517 0 1 1 20.7418,0 z"
       transform="matrix(0.20554424,0,0,0.15531929,190.73678,480.44472)"
       id="path3923-1-9-4-8-4-1-7-22"
       style="fill:#ffff00;fill-opacity:1;stroke:#ff0000;stroke-width:1;stroke-linecap:round;stroke-miterlimit:4;stroke-opacity:1;stroke-dasharray:none;stroke-dashoffset:0;display:inline" />
    <path
       d="m 380.89486,400.88113 a 10.370899,12.256517 0 1 1 -20.7418,0 10.370899,12.256517 0 1 1 20.7418,0 z"
       transform="matrix(0.20554424,0,0,0.15531929,154.43862,449.80342)"
       id="path3923-1-9-4-8-4-1-7-16"
       style="fill:#ffff00;fill-opacity:1;stroke:#ff0000;stroke-width:1;stroke-linecap:round;stroke-miterlimit:4;stroke-opacity:1;stroke-dasharray:none;stroke-dashoffset:0;display:inline" />
    <path
       d="m 380.89486,400.88113 a 10.370899,12.256517 0 1 1 -20.7418,0 10.370899,12.256517 0 1 1 20.7418,0 z"
       transform="matrix(0.20554424,0,0,0.15531929,170.46638,430.94724)"
       id="path3923-1-9-4-8-4-1-7-8"
       style="fill:#ffff00;fill-opacity:1;stroke:#ff0000;stroke-width:1;stroke-linecap:round;stroke-miterlimit:4;stroke-opacity:1;stroke-dasharray:none;stroke-dashoffset:0;display:inline" />
    <path
       d="m 380.89486,400.88113 a 10.370899,12.256517 0 1 1 -20.7418,0 10.370899,12.256517 0 1 1 20.7418,0 z"
       transform="matrix(0.20554424,0,0,0.15531929,148.31037,426.2332)"
       id="path3923-1-9-4-8-4-1-7-5"
       style="fill:#ffff00;fill-opacity:1;stroke:#ff0000;stroke-width:1;stroke-linecap:round;stroke-miterlimit:4;stroke-opacity:1;stroke-dasharray:none;stroke-dashoffset:0;display:inline" />
    <path
       d="m 380.89486,400.88113 a 10.370899,12.256517 0 1 1 -20.7418,0 10.370899,12.256517 0 1 1 20.7418,0 z"
       transform="matrix(0.20554424,0,0,0.15531929,118.56653,378.69009)"
       id="path3923-1-9-4-8-4-1-7-76"
       style="fill:#ffff00;fill-opacity:1;stroke:#ff0000;stroke-width:1;stroke-linecap:round;stroke-miterlimit:4;stroke-opacity:1;stroke-dasharray:none;stroke-dashoffset:0;display:inline" />
    <path
       d="m 380.89486,400.88113 a 10.370899,12.256517 0 1 1 -20.7418,0 10.370899,12.256517 0 1 1 20.7418,0 z"
       transform="matrix(0.20554424,0,0,0.15531929,123.79734,415.86229)"
       id="path3923-1-9-4-8-4-1-7-18"
       style="fill:#ffff00;fill-opacity:1;stroke:#ff0000;stroke-width:1;stroke-linecap:round;stroke-miterlimit:4;stroke-opacity:1;stroke-dasharray:none;stroke-dashoffset:0;display:inline" />
    <path
       d="m 380.89486,400.88113 a 10.370899,12.256517 0 1 1 -20.7418,0 10.370899,12.256517 0 1 1 20.7418,0 z"
       transform="matrix(0.16152419,0,0,0.13730232,121.72304,374.76599)"
       id="path3923-1-9-4-8-4-1-7-76-9"
       style="fill:#ffff00;fill-opacity:1;stroke:#ff0000;stroke-width:1;stroke-linecap:round;stroke-miterlimit:4;stroke-opacity:1;stroke-dasharray:none;stroke-dashoffset:0;display:inline" />
    <path
       d="m 380.89486,400.88113 a 10.370899,12.256517 0 1 1 -20.7418,0 10.370899,12.256517 0 1 1 20.7418,0 z"
       transform="matrix(0.16152419,0,0,0.13730232,121.72304,397.39341)"
       id="path3923-1-9-4-8-4-1-7-76-9-2"
       style="fill:#ffff00;fill-opacity:1;stroke:#ff0000;stroke-width:1;stroke-linecap:round;stroke-miterlimit:4;stroke-opacity:1;stroke-dasharray:none;stroke-dashoffset:0;display:inline" />
    <path
       d="m 380.89486,400.88113 a 10.370899,12.256517 0 1 1 -20.7418,0 10.370899,12.256517 0 1 1 20.7418,0 z"
       transform="matrix(0.16152419,0,0,0.13730232,114.88768,438.4056)"
       id="path3923-1-9-4-8-4-1-7-76-9-7"
       style="fill:#ffff00;fill-opacity:1;stroke:#ff0000;stroke-width:1;stroke-linecap:round;stroke-miterlimit:4;stroke-opacity:1;stroke-dasharray:none;stroke-dashoffset:0;display:inline" />
    <path
       d="m 380.89486,400.88113 a 10.370899,12.256517 0 1 1 -20.7418,0 10.370899,12.256517 0 1 1 20.7418,0 z"
       transform="matrix(0.16152419,0,0,0.13730232,129.50122,461.97583)"
       id="path3923-1-9-4-8-4-1-7-76-9-9"
       style="fill:#ffff00;fill-opacity:1;stroke:#ff0000;stroke-width:1;stroke-linecap:round;stroke-miterlimit:4;stroke-opacity:1;stroke-dasharray:none;stroke-dashoffset:0;display:inline" />
    <path
       d="m 380.89486,400.88113 a 10.370899,12.256517 0 1 1 -20.7418,0 10.370899,12.256517 0 1 1 20.7418,0 z"
       transform="matrix(0.16152419,0,0,0.13730232,140.81492,451.36923)"
       id="path3923-1-9-4-8-4-1-7-76-9-5"
       style="fill:#ffff00;fill-opacity:1;stroke:#ff0000;stroke-width:1;stroke-linecap:round;stroke-miterlimit:4;stroke-opacity:1;stroke-dasharray:none;stroke-dashoffset:0;display:inline" />
    <path
       d="m 380.89486,400.88113 a 10.370899,12.256517 0 1 1 -20.7418,0 10.370899,12.256517 0 1 1 20.7418,0 z"
       transform="matrix(0.16152419,0,0,0.13730232,154.72135,476.58937)"
       id="path3923-1-9-4-8-4-1-7-76-9-4"
       style="fill:#ffff00;fill-opacity:1;stroke:#ff0000;stroke-width:1;stroke-linecap:round;stroke-miterlimit:4;stroke-opacity:1;stroke-dasharray:none;stroke-dashoffset:0;display:inline" />
    <path
       d="m 380.89486,400.88113 a 10.370899,12.256517 0 1 1 -20.7418,0 10.370899,12.256517 0 1 1 20.7418,0 z"
       transform="matrix(0.16152419,0,0,0.13730232,182.09225,450.49517)"
       id="path3923-1-9-4-8-4-1-7-76-9-3"
       style="fill:#ffff00;fill-opacity:1;stroke:#ff0000;stroke-width:1;stroke-linecap:round;stroke-miterlimit:4;stroke-opacity:1;stroke-dasharray:none;stroke-dashoffset:0;display:inline" />
    <path
       d="m 380.89486,400.88113 a 10.370899,12.256517 0 1 1 -20.7418,0 10.370899,12.256517 0 1 1 20.7418,0 z"
       transform="matrix(0.16152419,0,0,0.13730232,192.43372,445.47667)"
       id="path3923-1-9-4-8-4-1-7-76-9-1"
       style="fill:#ffff00;fill-opacity:1;stroke:#ff0000;stroke-width:1;stroke-linecap:round;stroke-miterlimit:4;stroke-opacity:1;stroke-dasharray:none;stroke-dashoffset:0;display:inline" />
    <path
       d="m 380.89486,400.88113 a 10.370899,12.256517 0 1 1 -20.7418,0 10.370899,12.256517 0 1 1 20.7418,0 z"
       transform="matrix(0.16152419,0,0,0.13730232,188.66248,519.95859)"
       id="path3923-1-9-4-8-4-1-7-76-9-23"
       style="fill:#ffff00;fill-opacity:1;stroke:#ff0000;stroke-width:1;stroke-linecap:round;stroke-miterlimit:4;stroke-opacity:1;stroke-dasharray:none;stroke-dashoffset:0;display:inline" />
    <path
       d="m 380.89486,400.88113 a 10.370899,12.256517 0 1 1 -20.7418,0 10.370899,12.256517 0 1 1 20.7418,0 z"
       transform="matrix(0.16152419,0,0,0.13730232,185.83405,541.17179)"
       id="path3923-1-9-4-8-4-1-7-76-9-34"
       style="fill:#ffff00;fill-opacity:1;stroke:#ff0000;stroke-width:1;stroke-linecap:round;stroke-miterlimit:4;stroke-opacity:1;stroke-dasharray:none;stroke-dashoffset:0;display:inline" />
    <path
       d="m 380.89486,400.88113 a 10.370899,12.256517 0 1 1 -20.7418,0 10.370899,12.256517 0 1 1 20.7418,0 z"
       transform="matrix(0.16152419,0,0,0.13730232,118.65891,479.6535)"
       id="path3923-1-9-4-8-4-1-7-76-9-11"
       style="fill:#ffff00;fill-opacity:1;stroke:#ff0000;stroke-width:1;stroke-linecap:round;stroke-miterlimit:4;stroke-opacity:1;stroke-dasharray:none;stroke-dashoffset:0;display:inline" />
    <path
       d="m 380.89486,400.88113 a 10.370899,12.256517 0 1 1 -20.7418,0 10.370899,12.256517 0 1 1 20.7418,0 z"
       transform="matrix(0.16152419,0,0,0.13730232,129.73692,483.66044)"
       id="path3923-1-9-4-8-4-1-7-76-9-38"
       style="fill:#ffff00;fill-opacity:1;stroke:#ff0000;stroke-width:1;stroke-linecap:round;stroke-miterlimit:4;stroke-opacity:1;stroke-dasharray:none;stroke-dashoffset:0;display:inline" />
    <path
       d="m 380.89486,400.88113 a 10.370899,12.256517 0 1 1 -20.7418,0 10.370899,12.256517 0 1 1 20.7418,0 z"
       transform="matrix(0.16152419,0,0,0.13730232,248.79189,495.34414)"
       id="path3923-1-9-4-8-4-1-7-76-9-74"
       style="fill:#ffff00;fill-opacity:1;stroke:#ff0000;stroke-width:1;stroke-linecap:round;stroke-miterlimit:4;stroke-opacity:1;stroke-dasharray:none;stroke-dashoffset:0;display:inline" />
    <path
       d="m 380.89486,400.88113 a 10.370899,12.256517 0 1 1 -20.7418,0 10.370899,12.256517 0 1 1 20.7418,0 z"
       transform="matrix(0.16152419,0,0,0.13730232,261.02307,475.17516)"
       id="path3923-1-9-4-8-4-1-7-76-9-79"
       style="fill:#ffff00;fill-opacity:1;stroke:#ff0000;stroke-width:1;stroke-linecap:round;stroke-miterlimit:4;stroke-opacity:1;stroke-dasharray:none;stroke-dashoffset:0;display:inline" />
    <path
       d="m 380.89486,400.88113 a 10.370899,12.256517 0 1 1 -20.7418,0 10.370899,12.256517 0 1 1 20.7418,0 z"
       transform="matrix(0.16152419,0,0,0.13730232,293.07858,461.03302)"
       id="path3923-1-9-4-8-4-1-7-76-9-31"
       style="fill:#ffff00;fill-opacity:1;stroke:#ff0000;stroke-width:1;stroke-linecap:round;stroke-miterlimit:4;stroke-opacity:1;stroke-dasharray:none;stroke-dashoffset:0;display:inline" />
    <path
       d="m 380.89486,400.88113 a 10.370899,12.256517 0 1 1 -20.7418,0 10.370899,12.256517 0 1 1 20.7418,0 z"
       transform="matrix(0.16152419,0,0,0.13730232,275.65921,513.72892)"
       id="path3923-1-9-4-8-4-1-7-76-9-98"
       style="fill:#ffff00;fill-opacity:1;stroke:#ff0000;stroke-width:1;stroke-linecap:round;stroke-miterlimit:4;stroke-opacity:1;stroke-dasharray:none;stroke-dashoffset:0;display:inline" />
    <path
       d="m 380.89486,400.88113 a 10.370899,12.256517 0 1 1 -20.7418,0 10.370899,12.256517 0 1 1 20.7418,0 z"
       transform="matrix(0.16152419,0,0,0.13730232,255.83763,533.62932)"
       id="path3923-1-9-4-8-4-1-7-76-9-6"
       style="fill:#ffff00;fill-opacity:1;stroke:#ff0000;stroke-width:1;stroke-linecap:round;stroke-miterlimit:4;stroke-opacity:1;stroke-dasharray:none;stroke-dashoffset:0;display:inline" />
    <path
       d="m 380.89486,400.88113 a 10.370899,12.256517 0 1 1 -20.7418,0 10.370899,12.256517 0 1 1 20.7418,0 z"
       transform="matrix(0.16152419,0,0,0.13730232,285.53611,534.80783)"
       id="path3923-1-9-4-8-4-1-7-76-9-50"
       style="fill:#ffff00;fill-opacity:1;stroke:#ff0000;stroke-width:1;stroke-linecap:round;stroke-miterlimit:4;stroke-opacity:1;stroke-dasharray:none;stroke-dashoffset:0;display:inline" />
    <path
       d="m 380.89486,400.88113 a 10.370899,12.256517 0 1 1 -20.7418,0 10.370899,12.256517 0 1 1 20.7418,0 z"
       transform="matrix(0.16152419,0,0,0.13730232,230.61749,520.42999)"
       id="path3923-1-9-4-8-4-1-7-76-9-28"
       style="fill:#ffff00;fill-opacity:1;stroke:#ff0000;stroke-width:1;stroke-linecap:round;stroke-miterlimit:4;stroke-opacity:1;stroke-dasharray:none;stroke-dashoffset:0;display:inline" />
    <path
       d="m 380.89486,400.88113 a 10.370899,12.256517 0 1 1 -20.7418,0 10.370899,12.256517 0 1 1 20.7418,0 z"
       transform="matrix(0.16152419,0,0,0.13730232,261.96588,531.508)"
       id="path3923-1-9-4-8-4-1-7-76-9-60"
       style="fill:#ffff00;fill-opacity:1;stroke:#ff0000;stroke-width:1;stroke-linecap:round;stroke-miterlimit:4;stroke-opacity:1;stroke-dasharray:none;stroke-dashoffset:0;display:inline" />
    <path
       d="m 380.89486,400.88113 a 10.370899,12.256517 0 1 1 -20.7418,0 10.370899,12.256517 0 1 1 20.7418,0 z"
       transform="matrix(0.16152419,0,0,0.13730232,233.44591,551.30699)"
       id="path3923-1-9-4-8-4-1-7-76-9-24"
       style="fill:#ffff00;fill-opacity:1;stroke:#ff0000;stroke-width:1;stroke-linecap:round;stroke-miterlimit:4;stroke-opacity:1;stroke-dasharray:none;stroke-dashoffset:0;display:inline" />
    <path
       d="m 380.89486,400.88113 a 10.370899,12.256517 0 1 1 -20.7418,0 10.370899,12.256517 0 1 1 20.7418,0 z"
       transform="matrix(0.16152419,0,0,0.13730232,251.04943,571.47597)"
       id="path3923-1-9-4-8-4-1-7-76-9-8"
       style="fill:#ffff00;fill-opacity:1;stroke:#ff0000;stroke-width:1;stroke-linecap:round;stroke-miterlimit:4;stroke-opacity:1;stroke-dasharray:none;stroke-dashoffset:0;display:inline" />
    <path
       d="m 380.89486,400.88113 a 10.370899,12.256517 0 1 1 -20.7418,0 10.370899,12.256517 0 1 1 20.7418,0 z"
       transform="matrix(0.16152419,0,0,0.13730232,277.54073,546.02013)"
       id="path3923-1-9-4-8-4-1-7-76-9-65"
       style="fill:#ffff00;fill-opacity:1;stroke:#ff0000;stroke-width:1;stroke-linecap:round;stroke-miterlimit:4;stroke-opacity:1;stroke-dasharray:none;stroke-dashoffset:0;display:inline" />
    <path
       d="m 380.89486,400.88113 a 10.370899,12.256517 0 1 1 -20.7418,0 10.370899,12.256517 0 1 1 20.7418,0 z"
       transform="matrix(0.16152419,0,0,0.13730232,352.53762,530.93518)"
       id="path3923-1-9-4-8-4-1-7-76-9-0"
       style="fill:#ffff00;fill-opacity:1;stroke:#ff0000;stroke-width:1;stroke-linecap:round;stroke-miterlimit:4;stroke-opacity:1;stroke-dasharray:none;stroke-dashoffset:0;display:inline" />
    <path
       d="m 380.89486,400.88113 a 10.370899,12.256517 0 1 1 -20.7418,0 10.370899,12.256517 0 1 1 20.7418,0 z"
       transform="matrix(0.16152419,0,0,0.13730232,385.94527,523.49412)"
       id="path3923-1-9-4-8-4-1-7-76-9-90"
       style="fill:#ffff00;fill-opacity:1;stroke:#ff0000;stroke-width:1;stroke-linecap:round;stroke-miterlimit:4;stroke-opacity:1;stroke-dasharray:none;stroke-dashoffset:0;display:inline" />
    <path
       d="m 380.89486,400.88113 a 10.370899,12.256517 0 1 1 -20.7418,0 10.370899,12.256517 0 1 1 20.7418,0 z"
       transform="matrix(0.16152419,0,0,0.13730232,393.48774,544.70733)"
       id="path3923-1-9-4-8-4-1-7-76-9-06"
       style="fill:#ffff00;fill-opacity:1;stroke:#ff0000;stroke-width:1;stroke-linecap:round;stroke-miterlimit:4;stroke-opacity:1;stroke-dasharray:none;stroke-dashoffset:0;display:inline" />
    <path
       d="m 380.89486,400.88113 a 10.370899,12.256517 0 1 1 -20.7418,0 10.370899,12.256517 0 1 1 20.7418,0 z"
       transform="matrix(0.16152419,0,0,0.13730232,341.39755,547.53575)"
       id="path3923-1-9-4-8-4-1-7-76-9-13"
       style="fill:#ffff00;fill-opacity:1;stroke:#ff0000;stroke-width:1;stroke-linecap:round;stroke-miterlimit:4;stroke-opacity:1;stroke-dasharray:none;stroke-dashoffset:0;display:inline" />
    <path
       d="m 380.89486,400.88113 a 10.370899,12.256517 0 1 1 -20.7418,0 10.370899,12.256517 0 1 1 20.7418,0 z"
       transform="matrix(0.16152419,0,0,0.13730232,394.90196,496.62406)"
       id="path3923-1-9-4-8-4-1-7-76-9-89"
       style="fill:#ffff00;fill-opacity:1;stroke:#ff0000;stroke-width:1;stroke-linecap:round;stroke-miterlimit:4;stroke-opacity:1;stroke-dasharray:none;stroke-dashoffset:0;display:inline" />
    <path
       d="m 380.89486,400.88113 a 10.370899,12.256517 0 1 1 -20.7418,0 10.370899,12.256517 0 1 1 20.7418,0 z"
       transform="matrix(0.16152419,0,0,0.13730232,393.25204,462.21153)"
       id="path3923-1-9-4-8-4-1-7-76-9-344"
       style="fill:#ffff00;fill-opacity:1;stroke:#ff0000;stroke-width:1;stroke-linecap:round;stroke-miterlimit:4;stroke-opacity:1;stroke-dasharray:none;stroke-dashoffset:0;display:inline" />
    <path
       d="m 380.89486,400.88113 a 10.370899,12.256517 0 1 1 -20.7418,0 10.370899,12.256517 0 1 1 20.7418,0 z"
       transform="matrix(0.16152419,0,0,0.13730232,406.45137,453.96196)"
       id="path3923-1-9-4-8-4-1-7-76-9-606"
       style="fill:#ffff00;fill-opacity:1;stroke:#ff0000;stroke-width:1;stroke-linecap:round;stroke-miterlimit:4;stroke-opacity:1;stroke-dasharray:none;stroke-dashoffset:0;display:inline" />
    <path
       d="m 380.89486,400.88113 a 10.370899,12.256517 0 1 1 -20.7418,0 10.370899,12.256517 0 1 1 20.7418,0 z"
       transform="matrix(0.16152419,0,0,0.13730232,409.2798,502.75232)"
       id="path3923-1-9-4-8-4-1-7-76-9-61"
       style="fill:#ffff00;fill-opacity:1;stroke:#ff0000;stroke-width:1;stroke-linecap:round;stroke-miterlimit:4;stroke-opacity:1;stroke-dasharray:none;stroke-dashoffset:0;display:inline" />
    <path
       d="m 380.89486,400.88113 a 10.370899,12.256517 0 1 1 -20.7418,0 10.370899,12.256517 0 1 1 20.7418,0 z"
       transform="matrix(0.16152419,0,0,0.13730232,405.32809,470.73968)"
       id="path3923-1-9-4-8-4-1-7-76-9-84"
       style="fill:#ffff00;fill-opacity:1;stroke:#ff0000;stroke-width:1;stroke-linecap:round;stroke-miterlimit:4;stroke-opacity:1;stroke-dasharray:none;stroke-dashoffset:0;display:inline" />
    <path
       d="m 380.89486,400.88113 a 10.370899,12.256517 0 1 1 -20.7418,0 10.370899,12.256517 0 1 1 20.7418,0 z"
       transform="matrix(0.16152419,0,0,0.13730232,431.43581,413.65687)"
       id="path3923-1-9-4-8-4-1-7-76-9-96"
       style="fill:#ffff00;fill-opacity:1;stroke:#ff0000;stroke-width:1;stroke-linecap:round;stroke-miterlimit:4;stroke-opacity:1;stroke-dasharray:none;stroke-dashoffset:0;display:inline" />
    <path
       d="m 380.89486,400.88113 a 10.370899,12.256517 0 1 1 -20.7418,0 10.370899,12.256517 0 1 1 20.7418,0 z"
       transform="matrix(0.16152419,0,0,0.13730232,429.36972,337.73021)"
       id="path3923-1-9-4-8-4-1-7-76-9-37"
       style="fill:#ffff00;fill-opacity:1;stroke:#ff0000;stroke-width:1;stroke-linecap:round;stroke-miterlimit:4;stroke-opacity:1;stroke-dasharray:none;stroke-dashoffset:0;display:inline" />
    <path
       d="m 380.89486,400.88113 a 10.370899,12.256517 0 1 1 -20.7418,0 10.370899,12.256517 0 1 1 20.7418,0 z"
       transform="matrix(0.16152419,0,0,0.13730232,443.45663,329.98256)"
       id="path3923-1-9-4-8-4-1-7-76-9-88"
       style="fill:#ffff00;fill-opacity:1;stroke:#ff0000;stroke-width:1;stroke-linecap:round;stroke-miterlimit:4;stroke-opacity:1;stroke-dasharray:none;stroke-dashoffset:0;display:inline" />
    <path
       d="m 380.89486,400.88113 a 10.370899,12.256517 0 1 1 -20.7418,0 10.370899,12.256517 0 1 1 20.7418,0 z"
       transform="matrix(0.16152419,0,0,0.13730232,100.50984,469.75401)"
       id="path3923-1-9-4-8-4-1-7-76-9-29"
       style="fill:#ffff00;fill-opacity:1;stroke:#ff0000;stroke-width:1;stroke-linecap:round;stroke-miterlimit:4;stroke-opacity:1;stroke-dasharray:none;stroke-dashoffset:0;display:inline" />
    <path
       d="m 380.89486,400.88113 a 10.370899,12.256517 0 1 1 -20.7418,0 10.370899,12.256517 0 1 1 20.7418,0 z"
       transform="matrix(0.16152419,0,0,0.13730232,97.681409,440.52692)"
       id="path3923-1-9-4-8-4-1-7-76-9-135"
       style="fill:#ffff00;fill-opacity:1;stroke:#ff0000;stroke-width:1;stroke-linecap:round;stroke-miterlimit:4;stroke-opacity:1;stroke-dasharray:none;stroke-dashoffset:0;display:inline" />
    <path
       d="m 380.89486,400.88113 a 10.370899,12.256517 0 1 1 -20.7418,0 10.370899,12.256517 0 1 1 20.7418,0 z"
       transform="matrix(0.16152419,0,0,0.13730232,81.182246,477.76788)"
       id="path3923-1-9-4-8-4-1-7-76-9-984"
       style="fill:#ffff00;fill-opacity:1;stroke:#ff0000;stroke-width:1;stroke-linecap:round;stroke-miterlimit:4;stroke-opacity:1;stroke-dasharray:none;stroke-dashoffset:0;display:inline" />
    <path
       d="m 380.89486,400.88113 a 10.370899,12.256517 0 1 1 -20.7418,0 10.370899,12.256517 0 1 1 20.7418,0 z"
       transform="matrix(0.16152419,0,0,0.13730232,99.095629,499.4525)"
       id="path3923-1-9-4-8-4-1-7-76-9-07"
       style="fill:#ffff00;fill-opacity:1;stroke:#ff0000;stroke-width:1;stroke-linecap:round;stroke-miterlimit:4;stroke-opacity:1;stroke-dasharray:none;stroke-dashoffset:0;display:inline" />
    <path
       d="m 380.89486,400.88113 a 10.370899,12.256517 0 1 1 -20.7418,0 10.370899,12.256517 0 1 1 20.7418,0 z"
       transform="matrix(0.16152419,0,0,0.13730232,219.30377,574.40581)"
       id="path3923-1-9-4-8-4-1-7-76-9-63"
       style="fill:#ffff00;fill-opacity:1;stroke:#ff0000;stroke-width:1;stroke-linecap:round;stroke-miterlimit:4;stroke-opacity:1;stroke-dasharray:none;stroke-dashoffset:0;display:inline" />
    <path
       d="m 380.89486,400.88113 a 10.370899,12.256517 0 1 1 -20.7418,0 10.370899,12.256517 0 1 1 20.7418,0 z"
       transform="matrix(0.09623773,0,0,0.08205994,132.47821,355.78158)"
       id="path3923-1-9-4-8-4-1-7-76-9-615-9"
       style="fill:#ffff00;fill-opacity:1;stroke:none;display:inline" />
    <path
       d="m 380.89486,400.88113 a 10.370899,12.256517 0 1 1 -20.7418,0 10.370899,12.256517 0 1 1 20.7418,0 z"
       transform="matrix(0.09623773,0,0,0.08205994,96.062209,419.18548)"
       id="path3923-1-9-4-8-4-1-7-76-9-615-773"
       style="fill:#ffff00;fill-opacity:1;stroke:none;display:inline" />
    <path
       d="m 380.89486,400.88113 a 10.370899,12.256517 0 1 1 -20.7418,0 10.370899,12.256517 0 1 1 20.7418,0 z"
       transform="matrix(0.09623773,0,0,0.08205994,104.66534,442.87357)"
       id="path3923-1-9-4-8-4-1-7-76-9-615-99"
       style="fill:#ffff00;fill-opacity:1;stroke:none;display:inline" />
    <path
       d="m 380.89486,400.88113 a 10.370899,12.256517 0 1 1 -20.7418,0 10.370899,12.256517 0 1 1 20.7418,0 z"
       transform="matrix(0.09623773,0,0,0.08205994,99.597749,452.30166)"
       id="path3923-1-9-4-8-4-1-7-76-9-615-82"
       style="fill:#ffff00;fill-opacity:1;stroke:none;display:inline" />
    <path
       d="m 380.89486,400.88113 a 10.370899,12.256517 0 1 1 -20.7418,0 10.370899,12.256517 0 1 1 20.7418,0 z"
       transform="matrix(0.09623773,0,0,0.08205994,92.293599,518.48685)"
       id="path3923-1-9-4-8-4-1-7-76-9-615-414"
       style="fill:#ffff00;fill-opacity:1;stroke:none;display:inline" />
    <path
       d="m 380.89486,400.88113 a 10.370899,12.256517 0 1 1 -20.7418,0 10.370899,12.256517 0 1 1 20.7418,0 z"
       transform="matrix(0.09623773,0,0,0.08205994,88.048336,534.44389)"
       id="path3923-1-9-4-8-4-1-7-76-9-615-39"
       style="fill:#ffff00;fill-opacity:1;stroke:none;display:inline" />
    <path
       d="m 380.89486,400.88113 a 10.370899,12.256517 0 1 1 -20.7418,0 10.370899,12.256517 0 1 1 20.7418,0 z"
       transform="matrix(0.09623773,0,0,0.08205994,108.43658,547.40752)"
       id="path3923-1-9-4-8-4-1-7-76-9-615-73"
       style="fill:#ffff00;fill-opacity:1;stroke:none;display:inline" />
    <path
       d="m 380.89486,400.88113 a 10.370899,12.256517 0 1 1 -20.7418,0 10.370899,12.256517 0 1 1 20.7418,0 z"
       transform="matrix(0.09623773,0,0,0.08205994,76.616772,493.54955)"
       id="path3923-1-9-4-8-4-1-7-76-9-615-15"
       style="fill:#ffff00;fill-opacity:1;stroke:none;display:inline" />
    <path
       d="m 380.89486,400.88113 a 10.370899,12.256517 0 1 1 -20.7418,0 10.370899,12.256517 0 1 1 20.7418,0 z"
       transform="matrix(0.09623773,0,0,0.08205994,68.13149,485.65352)"
       id="path3923-1-9-4-8-4-1-7-76-9-615-86"
       style="fill:#ffff00;fill-opacity:1;stroke:none;display:inline" />
    <path
       d="m 380.89486,400.88113 a 10.370899,12.256517 0 1 1 -20.7418,0 10.370899,12.256517 0 1 1 20.7418,0 z"
       transform="matrix(0.09623773,0,0,0.08205994,142.84911,436.03819)"
       id="path3923-1-9-4-8-4-1-7-76-9-615-124"
       style="fill:#ffff00;fill-opacity:1;stroke:none;display:inline" />
    <path
       d="m 380.89486,400.88113 a 10.370899,12.256517 0 1 1 -20.7418,0 10.370899,12.256517 0 1 1 20.7418,0 z"
       transform="matrix(0.09623773,0,0,0.08205994,165.47653,459.72628)"
       id="path3923-1-9-4-8-4-1-7-76-9-615-7229"
       style="fill:#ffff00;fill-opacity:1;stroke:none;display:inline" />
    <path
       d="m 380.89486,400.88113 a 10.370899,12.256517 0 1 1 -20.7418,0 10.370899,12.256517 0 1 1 20.7418,0 z"
       transform="matrix(0.09623773,0,0,0.08205994,165.12297,500.62062)"
       id="path3923-1-9-4-8-4-1-7-76-9-615-839"
       style="fill:#ffff00;fill-opacity:1;stroke:none;display:inline" />
    <path
       d="m 380.89486,400.88113 a 10.370899,12.256517 0 1 1 -20.7418,0 10.370899,12.256517 0 1 1 20.7418,0 z"
       transform="matrix(0.09623773,0,0,0.08205994,149.09521,480.58592)"
       id="path3923-1-9-4-8-4-1-7-76-9-615-79"
       style="fill:#ffff00;fill-opacity:1;stroke:none;display:inline" />
    <path
       d="m 380.89486,400.88113 a 10.370899,12.256517 0 1 1 -20.7418,0 10.370899,12.256517 0 1 1 20.7418,0 z"
       transform="matrix(0.09623773,0,0,0.08205994,140.02068,478.70031)"
       id="path3923-1-9-4-8-4-1-7-76-9-615-976"
       style="fill:#ffff00;fill-opacity:1;stroke:none;display:inline" />
    <path
       d="m 380.89486,400.88113 a 10.370899,12.256517 0 1 1 -20.7418,0 10.370899,12.256517 0 1 1 20.7418,0 z"
       transform="matrix(0.09623773,0,0,0.08205994,133.77457,474.22197)"
       id="path3923-1-9-4-8-4-1-7-76-9-615-93"
       style="fill:#ffff00;fill-opacity:1;stroke:none;display:inline" />
    <path
       d="m 380.89486,400.88113 a 10.370899,12.256517 0 1 1 -20.7418,0 10.370899,12.256517 0 1 1 20.7418,0 z"
       transform="matrix(0.09623773,0,0,0.08205994,144.26332,491.31038)"
       id="path3923-1-9-4-8-4-1-7-76-9-615-57"
       style="fill:#ffff00;fill-opacity:1;stroke:none;display:inline" />
    <path
       d="m 380.89486,400.88113 a 10.370899,12.256517 0 1 1 -20.7418,0 10.370899,12.256517 0 1 1 20.7418,0 z"
       transform="matrix(0.09623773,0,0,0.08205994,142.37771,529.49414)"
       id="path3923-1-9-4-8-4-1-7-76-9-615-036"
       style="fill:#ffff00;fill-opacity:1;stroke:none;display:inline" />
    <path
       d="m 380.89486,400.88113 a 10.370899,12.256517 0 1 1 -20.7418,0 10.370899,12.256517 0 1 1 20.7418,0 z"
       transform="matrix(0.09623773,0,0,0.08205994,149.09522,556.01065)"
       id="path3923-1-9-4-8-4-1-7-76-9-615-492-58"
       style="fill:#ffff00;fill-opacity:1;stroke:none;display:inline" />
    <path
       d="m 380.89486,400.88113 a 10.370899,12.256517 0 1 1 -20.7418,0 10.370899,12.256517 0 1 1 20.7418,0 z"
       transform="matrix(0.09623773,0,0,0.08205994,131.7711,563.08172)"
       id="path3923-1-9-4-8-4-1-7-76-9-615-492-7"
       style="fill:#ffff00;fill-opacity:1;stroke:none;display:inline" />
    <path
       d="m 380.89486,400.88113 a 10.370899,12.256517 0 1 1 -20.7418,0 10.370899,12.256517 0 1 1 20.7418,0 z"
       transform="matrix(0.09623773,0,0,0.08205994,115.50765,578.87377)"
       id="path3923-1-9-4-8-4-1-7-76-9-615-492-444"
       style="fill:#ffff00;fill-opacity:1;stroke:none;display:inline" />
    <path
       d="m 380.89486,400.88113 a 10.370899,12.256517 0 1 1 -20.7418,0 10.370899,12.256517 0 1 1 20.7418,0 z"
       transform="matrix(0.09623773,0,0,0.08205994,194.11435,547.52537)"
       id="path3923-1-9-4-8-4-1-7-76-9-615-492-72"
       style="fill:#ffff00;fill-opacity:1;stroke:none;display:inline" />
    <path
       d="m 380.89486,400.88113 a 10.370899,12.256517 0 1 1 -20.7418,0 10.370899,12.256517 0 1 1 20.7418,0 z"
       transform="matrix(0.09623773,0,0,0.08205994,199.0641,576.8703)"
       id="path3923-1-9-4-8-4-1-7-76-9-615-492-97"
       style="fill:#ffff00;fill-opacity:1;stroke:none;display:inline" />
    <path
       d="m 380.89486,400.88113 a 10.370899,12.256517 0 1 1 -20.7418,0 10.370899,12.256517 0 1 1 20.7418,0 z"
       transform="matrix(0.09623773,0,0,0.08205994,198.35699,590.54104)"
       id="path3923-1-9-4-8-4-1-7-76-9-615-492-43"
       style="fill:#ffff00;fill-opacity:1;stroke:none;display:inline" />
    <path
       d="m 380.89486,400.88113 a 10.370899,12.256517 0 1 1 -20.7418,0 10.370899,12.256517 0 1 1 20.7418,0 z"
       transform="matrix(0.09623773,0,0,0.08205994,218.15598,575.92749)"
       id="path3923-1-9-4-8-4-1-7-76-9-615-492-75"
       style="fill:#ffff00;fill-opacity:1;stroke:none;display:inline" />
    <path
       d="m 380.89486,400.88113 a 10.370899,12.256517 0 1 1 -20.7418,0 10.370899,12.256517 0 1 1 20.7418,0 z"
       transform="matrix(0.09623773,0,0,0.08205994,230.05895,591.6017)"
       id="path3923-1-9-4-8-4-1-7-76-9-615-492-54"
       style="fill:#ffff00;fill-opacity:1;stroke:none;display:inline" />
    <path
       d="m 380.89486,400.88113 a 10.370899,12.256517 0 1 1 -20.7418,0 10.370899,12.256517 0 1 1 20.7418,0 z"
       transform="matrix(0.09623773,0,0,0.08205994,190.93237,479.76097)"
       id="path3923-1-9-4-8-4-1-7-76-9-615-492-92"
       style="fill:#ffff00;fill-opacity:1;stroke:none;display:inline" />
    <path
       d="m 380.89486,400.88113 a 10.370899,12.256517 0 1 1 -20.7418,0 10.370899,12.256517 0 1 1 20.7418,0 z"
       transform="matrix(0.09623773,0,0,0.08205994,205.66376,517.23762)"
       id="path3923-1-9-4-8-4-1-7-76-9-615-492-260"
       style="fill:#ffff00;fill-opacity:1;stroke:none;display:inline" />
    <path
       d="m 380.89486,400.88113 a 10.370899,12.256517 0 1 1 -20.7418,0 10.370899,12.256517 0 1 1 20.7418,0 z"
       transform="matrix(0.09623773,0,0,0.08205994,206.01732,480.46808)"
       id="path3923-1-9-4-8-4-1-7-76-9-615-492-04"
       style="fill:#ffff00;fill-opacity:1;stroke:none;display:inline" />
    <path
       d="m 380.89486,400.88113 a 10.370899,12.256517 0 1 1 -20.7418,0 10.370899,12.256517 0 1 1 20.7418,0 z"
       transform="matrix(0.09623773,0,0,0.08205994,225.3449,506.86673)"
       id="path3923-1-9-4-8-4-1-7-76-9-615-492-78"
       style="fill:#ffff00;fill-opacity:1;stroke:none;display:inline" />
    <path
       d="m 380.89486,400.88113 a 10.370899,12.256517 0 1 1 -20.7418,0 10.370899,12.256517 0 1 1 20.7418,0 z"
       transform="matrix(0.09623773,0,0,0.08205994,235.59794,485.06427)"
       id="path3923-1-9-4-8-4-1-7-76-9-615-492-37"
       style="fill:#ffff00;fill-opacity:1;stroke:none;display:inline" />
    <path
       d="m 380.89486,400.88113 a 10.370899,12.256517 0 1 1 -20.7418,0 10.370899,12.256517 0 1 1 20.7418,0 z"
       transform="matrix(0.09623773,0,0,0.08205994,235.00869,501.32772)"
       id="path3923-1-9-4-8-4-1-7-76-9-615-492-10"
       style="fill:#ffff00;fill-opacity:1;stroke:none;display:inline" />
    <path
       d="m 380.89486,400.88113 a 10.370899,12.256517 0 1 1 -20.7418,0 10.370899,12.256517 0 1 1 20.7418,0 z"
       transform="matrix(0.09623773,0,0,0.08205994,247.00052,517.48576)"
       id="path3923-1-9-4-8-4-1-7-76-9-615-492-139"
       style="fill:#ffff00;fill-opacity:1;stroke:none;display:inline" />
    <path
       d="m 380.89486,400.88113 a 10.370899,12.256517 0 1 1 -20.7418,0 10.370899,12.256517 0 1 1 20.7418,0 z"
       transform="matrix(0.09623773,0,0,0.08205994,256.81115,514.05564)"
       id="path3923-1-9-4-8-4-1-7-76-9-615-492-959"
       style="fill:#ffff00;fill-opacity:1;stroke:none;display:inline" />
    <path
       d="m 380.89486,400.88113 a 10.370899,12.256517 0 1 1 -20.7418,0 10.370899,12.256517 0 1 1 20.7418,0 z"
       transform="matrix(0.09623773,0,0,0.08205994,266.47495,538.92224)"
       id="path3923-1-9-4-8-4-1-7-76-9-615-492-237"
       style="fill:#ffff00;fill-opacity:1;stroke:none;display:inline" />
    <path
       d="m 380.89486,400.88113 a 10.370899,12.256517 0 1 1 -20.7418,0 10.370899,12.256517 0 1 1 20.7418,0 z"
       transform="matrix(0.09623773,0,0,0.08205994,268.47841,555.4214)"
       id="path3923-1-9-4-8-4-1-7-76-9-615-492-31"
       style="fill:#ffff00;fill-opacity:1;stroke:none;display:inline" />
    <path
       d="m 380.89486,400.88113 a 10.370899,12.256517 0 1 1 -20.7418,0 10.370899,12.256517 0 1 1 20.7418,0 z"
       transform="matrix(0.09623773,0,0,0.08205994,267.0642,585.59128)"
       id="path3923-1-9-4-8-4-1-7-76-9-615-492-510"
       style="fill:#ffff00;fill-opacity:1;stroke:#ff0000;stroke-width:1;stroke-linecap:round;stroke-miterlimit:4;stroke-opacity:1;stroke-dasharray:none;stroke-dashoffset:0;display:inline" />
    <path
       d="m 380.89486,400.88113 a 10.370899,12.256517 0 1 1 -20.7418,0 10.370899,12.256517 0 1 1 20.7418,0 z"
       transform="matrix(0.09623773,0,0,0.08205994,294.05211,579.34517)"
       id="path3923-1-9-4-8-4-1-7-76-9-615-492-134"
       style="fill:#ffff00;fill-opacity:1;stroke:none;display:inline" />
    <path
       d="m 380.89486,400.88113 a 10.370899,12.256517 0 1 1 -20.7418,0 10.370899,12.256517 0 1 1 20.7418,0 z"
       transform="matrix(0.09623773,0,0,0.08205994,296.29128,601.26548)"
       id="path3923-1-9-4-8-4-1-7-76-9-615-492-031"
       style="fill:#ffff00;fill-opacity:1;stroke:none;display:inline" />
    <path
       d="m 380.89486,400.88113 a 10.370899,12.256517 0 1 1 -20.7418,0 10.370899,12.256517 0 1 1 20.7418,0 z"
       transform="matrix(0.09623773,0,0,0.08205994,237.83712,567.67791)"
       id="path3923-1-9-4-8-4-1-7-76-9-615-492-221"
       style="fill:#ffff00;fill-opacity:1;stroke:none;display:inline" />
    <path
       d="m 380.89486,400.88113 a 10.370899,12.256517 0 1 1 -20.7418,0 10.370899,12.256517 0 1 1 20.7418,0 z"
       transform="matrix(0.09623773,0,0,0.08205994,249.03297,561.4318)"
       id="path3923-1-9-4-8-4-1-7-76-9-615-492-303"
       style="fill:#ffff00;fill-opacity:1;stroke:none;display:inline" />
    <path
       d="m 380.89486,400.88113 a 10.370899,12.256517 0 1 1 -20.7418,0 10.370899,12.256517 0 1 1 20.7418,0 z"
       transform="matrix(0.09623773,0,0,0.08205994,292.6379,517.00192)"
       id="path3923-1-9-4-8-4-1-7-76-9-615-492-85"
       style="fill:#ffff00;fill-opacity:1;stroke:none;display:inline" />
    <path
       d="m 380.89486,400.88113 a 10.370899,12.256517 0 1 1 -20.7418,0 10.370899,12.256517 0 1 1 20.7418,0 z"
       transform="matrix(0.09623773,0,0,0.08205994,339.18909,533.50109)"
       id="path3923-1-9-4-8-4-1-7-76-9-615-492-796"
       style="fill:#ffff00;fill-opacity:1;stroke:none;display:inline" />
    <path
       d="m 380.89486,400.88113 a 10.370899,12.256517 0 1 1 -20.7418,0 10.370899,12.256517 0 1 1 20.7418,0 z"
       transform="matrix(0.09623773,0,0,0.08205994,337.30348,560.48899)"
       id="path3923-1-9-4-8-4-1-7-76-9-615-492-417"
       style="fill:#ffff00;fill-opacity:1;stroke:none;display:inline" />
    <path
       d="m 380.89486,400.88113 a 10.370899,12.256517 0 1 1 -20.7418,0 10.370899,12.256517 0 1 1 20.7418,0 z"
       transform="matrix(0.09623773,0,0,0.08205994,323.63274,567.20651)"
       id="path3923-1-9-4-8-4-1-7-76-9-615-492-908"
       style="fill:#ffff00;fill-opacity:1;stroke:none;display:inline" />
    <path
       d="m 380.89486,400.88113 a 10.370899,12.256517 0 1 1 -20.7418,0 10.370899,12.256517 0 1 1 20.7418,0 z"
       transform="matrix(0.09623773,0,0,0.08205994,353.44908,567.20651)"
       id="path3923-1-9-4-8-4-1-7-76-9-615-492-593"
       style="fill:#ffff00;fill-opacity:1;stroke:none;display:inline" />
    <path
       d="m 380.89486,400.88113 a 10.370899,12.256517 0 1 1 -20.7418,0 10.370899,12.256517 0 1 1 20.7418,0 z"
       transform="matrix(0.09623773,0,0,0.08205994,328.93604,616.11473)"
       id="path3923-1-9-4-8-4-1-7-76-9-615-492-709"
       style="fill:#ffff00;fill-opacity:1;stroke:none;display:inline" />
    <path
       d="m 380.89486,400.88113 a 10.370899,12.256517 0 1 1 -20.7418,0 10.370899,12.256517 0 1 1 20.7418,0 z"
       transform="matrix(0.09623773,0,0,0.08205994,312.90829,612.57919)"
       id="path3923-1-9-4-8-4-1-7-76-9-615-492-82"
       style="fill:#ffff00;fill-opacity:1;stroke:none;display:inline" />
    <path
       d="m 380.89486,400.88113 a 10.370899,12.256517 0 1 1 -20.7418,0 10.370899,12.256517 0 1 1 20.7418,0 z"
       transform="matrix(0.09623773,0,0,0.08205994,295.23062,610.22217)"
       id="path3923-1-9-4-8-4-1-7-76-9-615-492-848"
       style="fill:#ffff00;fill-opacity:1;stroke:none;display:inline" />
    <path
       d="m 380.89486,400.88113 a 10.370899,12.256517 0 1 1 -20.7418,0 10.370899,12.256517 0 1 1 20.7418,0 z"
       transform="matrix(0.09623773,0,0,0.08205994,280.49922,613.2863)"
       id="path3923-1-9-4-8-4-1-7-76-9-615-492-394"
       style="fill:#ffff00;fill-opacity:1;stroke:none;display:inline" />
    <path
       d="m 380.89486,400.88113 a 10.370899,12.256517 0 1 1 -20.7418,0 10.370899,12.256517 0 1 1 20.7418,0 z"
       transform="matrix(0.09623773,0,0,0.08205994,195.64641,615.76117)"
       id="path3923-1-9-4-8-4-1-7-76-9-615-492-42"
       style="fill:#ffff00;fill-opacity:1;stroke:none;display:inline" />
    <path
       d="m 380.89486,400.88113 a 10.370899,12.256517 0 1 1 -20.7418,0 10.370899,12.256517 0 1 1 20.7418,0 z"
       transform="matrix(0.09623773,0,0,0.08205994,228.76259,602.9154)"
       id="path3923-1-9-4-8-4-1-7-76-9-615-492-682"
       style="fill:#ffff00;fill-opacity:1;stroke:none;display:inline" />
    <path
       d="m 380.89486,400.88113 a 10.370899,12.256517 0 1 1 -20.7418,0 10.370899,12.256517 0 1 1 20.7418,0 z"
       transform="matrix(0.09623773,0,0,0.08205994,371.26868,598.86631)"
       id="path3923-1-9-4-8-4-1-7-76-9-615-492-663"
       style="fill:#ffff00;fill-opacity:1;stroke:none;display:inline" />
    <path
       d="m 380.89486,400.88113 a 10.370899,12.256517 0 1 1 -20.7418,0 10.370899,12.256517 0 1 1 20.7418,0 z"
       transform="matrix(0.09623773,0,0,0.08205994,354.86329,631.43537)"
       id="path3923-1-9-4-8-4-1-7-76-9-615-492-101"
       style="fill:#ffff00;fill-opacity:1;stroke:none;display:inline" />
    <path
       d="m 380.89486,400.88113 a 10.370899,12.256517 0 1 1 -20.7418,0 10.370899,12.256517 0 1 1 20.7418,0 z"
       transform="matrix(0.09623773,0,0,0.08205994,412.49249,583.70566)"
       id="path3923-1-9-4-8-4-1-7-76-9-615-492-008"
       style="fill:#ffff00;fill-opacity:1;stroke:none;display:inline" />
    <path
       d="m 380.89486,400.88113 a 10.370899,12.256517 0 1 1 -20.7418,0 10.370899,12.256517 0 1 1 20.7418,0 z"
       transform="matrix(0.09623773,0,0,0.08205994,418.85646,539.39364)"
       id="path3923-1-9-4-8-4-1-7-76-9-615-492-898"
       style="fill:#ffff00;fill-opacity:1;stroke:none;display:inline" />
    <path
       d="m 380.89486,400.88113 a 10.370899,12.256517 0 1 1 -20.7418,0 10.370899,12.256517 0 1 1 20.7418,0 z"
       transform="matrix(0.09623773,0,0,0.08205994,423.5705,505.68822)"
       id="path3923-1-9-4-8-4-1-7-76-9-615-492-481"
       style="fill:#ffff00;fill-opacity:1;stroke:none;display:inline" />
    <path
       d="m 380.89486,400.88113 a 10.370899,12.256517 0 1 1 -20.7418,0 10.370899,12.256517 0 1 1 20.7418,0 z"
       transform="matrix(0.09623773,0,0,0.08205994,441.95528,523.48374)"
       id="path3923-1-9-4-8-4-1-7-76-9-615-492-935"
       style="fill:#ffff00;fill-opacity:1;stroke:none;display:inline" />
    <path
       d="m 380.89486,400.88113 a 10.370899,12.256517 0 1 1 -20.7418,0 10.370899,12.256517 0 1 1 20.7418,0 z"
       transform="matrix(0.09623773,0,0,0.08205994,472.59657,542.10421)"
       id="path3923-1-9-4-8-4-1-7-76-9-615-492-838"
       style="fill:#ffff00;fill-opacity:1;stroke:none;display:inline" />
    <path
       d="m 380.89486,400.88113 a 10.370899,12.256517 0 1 1 -20.7418,0 10.370899,12.256517 0 1 1 20.7418,0 z"
       transform="matrix(0.09623773,0,0,0.08205994,444.19445,481.64659)"
       id="path3923-1-9-4-8-4-1-7-76-9-615-492-415"
       style="fill:#ffff00;fill-opacity:1;stroke:none;display:inline" />
    <path
       d="m 380.89486,400.88113 a 10.370899,12.256517 0 1 1 -20.7418,0 10.370899,12.256517 0 1 1 20.7418,0 z"
       transform="matrix(0.09623773,0,0,0.08205994,466.46831,507.22028)"
       id="path3923-1-9-4-8-4-1-7-76-9-615-492-4152"
       style="fill:#ffff00;fill-opacity:1;stroke:none;display:inline" />
    <path
       d="m 380.89486,400.88113 a 10.370899,12.256517 0 1 1 -20.7418,0 10.370899,12.256517 0 1 1 20.7418,0 z"
       transform="matrix(0.09623773,0,0,0.08205994,471.06451,492.48889)"
       id="path3923-1-9-4-8-4-1-7-76-9-615-492-7712"
       style="fill:#ffff00;fill-opacity:1;stroke:none;display:inline" />
    <path
       d="m 380.89486,400.88113 a 10.370899,12.256517 0 1 1 -20.7418,0 10.370899,12.256517 0 1 1 20.7418,0 z"
       transform="matrix(0.09623773,0,0,0.08205994,469.53244,426.02085)"
       id="path3923-1-9-4-8-4-1-7-76-9-615-492-623-78"
       style="fill:#ffff00;fill-opacity:1;stroke:none;display:inline" />
    <path
       d="m 380.89486,400.88113 a 10.370899,12.256517 0 1 1 -20.7418,0 10.370899,12.256517 0 1 1 20.7418,0 z"
       transform="matrix(0.09623773,0,0,0.08205994,480.25689,378.29115)"
       id="path3923-1-9-4-8-4-1-7-76-9-615-492-623-9"
       style="fill:#ffff00;fill-opacity:1;stroke:none;display:inline" />
    <path
       d="m 380.89486,400.88113 a 10.370899,12.256517 0 1 1 -20.7418,0 10.370899,12.256517 0 1 1 20.7418,0 z"
       transform="matrix(0.09623773,0,0,0.08205994,472.83227,342.34655)"
       id="path3923-1-9-4-8-4-1-7-76-9-615-492-623-86"
       style="fill:#ffff00;fill-opacity:1;stroke:none;display:inline" />
    <path
       d="m 380.89486,400.88113 a 10.370899,12.256517 0 1 1 -20.7418,0 10.370899,12.256517 0 1 1 20.7418,0 z"
       transform="matrix(0.09623773,0,0,0.08205994,509.60182,336.57184)"
       id="path3923-1-9-4-8-4-1-7-76-9-615-492-623-3"
       style="fill:#ffff00;fill-opacity:1;stroke:none;display:inline" />
  </g>
  <g
     id="layer5">
    <path
       d="M 591.99999,586.02885 C 451.33333,550.69552 454.66666,551.69552 454.66666,551.69552"
       id="path28847"
       style="fill:none;stroke:#00161d;stroke-width:1;stroke-linecap:butt;stroke-linejoin:miter;stroke-miterlimit:4;stroke-opacity:1;stroke-dasharray:1, 3;stroke-dashoffset:0" />
    <text
       x="74.953316"
       y="800.84705"
       id="text6193"
       xml:space="preserve"
       style="font-size:40px;font-style:normal;font-variant:normal;font-weight:400;font-stretch:normal;line-height:125%;letter-spacing:0px;word-spacing:0px;fill:#000000;fill-opacity:1;stroke:none;font-family:tk-arno-pro"><tspan
         x="74.953316"
         y="800.84705"
         id="tspan6195"
         style="font-size:28px">1. The Universe</tspan><tspan
         x="74.953316"
         y="835.84705"
         id="tspan6197"
         style="font-size:28px">2. Universal Body Parts</tspan><tspan
         x="74.953316"
         y="870.84705"
         id="tspan6199"
         style="font-size:28px">3. Universal Systems</tspan><tspan
         x="74.953316"
         y="905.84705"
         id="tspan6201"
         style="font-size:28px">4. Universal Organs</tspan><tspan
         x="74.953316"
         y="940.84705"
         id="tspan6203"
         style="font-size:28px">5. Universal Cells</tspan><tspan
         x="74.953316"
         y="975.84705"
         id="tspan6205"
         style="font-size:28px">6. Universal Molecules</tspan></text>
    <text
       x="561.85742"
       y="245.57298"
       id="text6219"
       xml:space="preserve"
       style="font-size:28px;font-style:normal;font-variant:normal;font-weight:400;font-stretch:normal;line-height:125%;letter-spacing:0px;word-spacing:0px;fill:#000000;fill-opacity:1;stroke:none;font-family:tk-arno-pro"><tspan
         x="561.85742"
         y="245.57298"
         id="tspan6221">1</tspan></text>
    <text
       x="617.22998"
       y="360.83389"
       id="text6227"
       xml:space="preserve"
       style="font-size:28px;font-style:normal;font-variant:normal;font-weight:400;font-stretch:normal;line-height:125%;letter-spacing:0px;word-spacing:0px;fill:#000000;fill-opacity:1;stroke:none;font-family:tk-arno-pro"><tspan
         x="617.22998"
         y="360.83389"
         id="tspan6229">2</tspan></text>
    <text
       x="635.54688"
       y="483.31857"
       id="text6231"
       xml:space="preserve"
       style="font-size:28px;font-style:normal;font-variant:normal;font-weight:400;font-stretch:normal;line-height:125%;letter-spacing:0px;word-spacing:0px;fill:#000000;fill-opacity:1;stroke:none;font-family:tk-arno-pro"><tspan
         x="635.54688"
         y="483.31857"
         id="tspan6233">3</tspan></text>
    <text
       x="614.00677"
       y="599.40582"
       id="text6235"
       xml:space="preserve"
       style="font-size:28px;font-style:normal;font-variant:normal;font-weight:400;font-stretch:normal;line-height:125%;letter-spacing:0px;word-spacing:0px;fill:#000000;fill-opacity:1;stroke:none;font-family:tk-arno-pro"><tspan
         x="614.00677"
         y="599.40582"
         id="tspan6237">4</tspan></text>
    <text
       x="553.4917"
       y="697.841"
       id="text6239"
       xml:space="preserve"
       style="font-size:28px;font-style:normal;font-variant:normal;font-weight:400;font-stretch:normal;line-height:125%;letter-spacing:0px;word-spacing:0px;fill:#000000;fill-opacity:1;stroke:none;font-family:tk-arno-pro"><tspan
         x="553.4917"
         y="697.841"
         id="tspan6241">5</tspan></text>
    <text
       x="430.8201"
       y="748.82843"
       id="text6243"
       xml:space="preserve"
       style="font-size:28px;font-style:normal;font-variant:normal;font-weight:400;font-stretch:normal;line-height:125%;letter-spacing:0px;word-spacing:0px;fill:#000000;fill-opacity:1;stroke:none;font-family:tk-arno-pro"><tspan
         x="430.8201"
         y="748.82843"
         id="tspan6245">6</tspan></text>
  </g>
  <g
     id="layer7">
    <path
       d="M 615.33333,479.69552 C 443,498.36219 443,498.36219 443,498.36219"
       id="path28851"
       style="fill:none;stroke:#00161d;stroke-width:1;stroke-linecap:butt;stroke-linejoin:miter;stroke-miterlimit:4;stroke-opacity:1;stroke-dasharray:1, 3;stroke-dashoffset:0" />
    <path
       d="m 596.66666,358.69552 c -199,70.66667 -199,70.66667 -199,70.66667"
       id="path28853"
       style="fill:none;stroke:#00161d;stroke-width:1;stroke-linecap:butt;stroke-linejoin:miter;stroke-miterlimit:4;stroke-opacity:1;stroke-dasharray:1, 3;stroke-dashoffset:0" />
    <path
       d="M 544,248.02885 C 339,358.36219 339,358.69552 339,358.69552"
       id="path28855"
       style="fill:none;stroke:#00161d;stroke-width:1;stroke-linecap:butt;stroke-linejoin:miter;stroke-miterlimit:4;stroke-opacity:1;stroke-dasharray:1, 4;stroke-dashoffset:0" />
  </g>
  <g
     id="layer6"
     style="display:inline">
    <rect
       width="20.443651"
       height="28"
       x="501.33987"
       y="860.78497"
       id="rect7537"
       style="fill:#00bfff;fill-opacity:1;stroke:none;display:inline" />
    <rect
       width="20.443651"
       height="28"
       x="501.33987"
       y="904.11835"
       id="rect7537-5"
       style="fill:#ffff00;fill-opacity:1;stroke:none;display:inline" />
    <rect
       width="20.443651"
       height="28"
       x="501.33987"
       y="947.45172"
       id="rect7537-5-0"
       style="fill:#ff0000;fill-opacity:1;stroke:none;display:inline" />
    <text
       x="545.18628"
       y="883.47113"
       id="text6207"
       xml:space="preserve"
       style="font-size:28px;font-style:normal;font-variant:normal;font-weight:400;font-stretch:normal;line-height:150%;letter-spacing:0px;word-spacing:0px;fill:#000000;fill-opacity:1;stroke:none;font-family:tk-arno-pro"><tspan
         x="545.18628"
         y="883.47113"
         id="tspan6209"
         style="font-size:28px;font-style:normal;font-variant:normal;font-weight:400;font-stretch:normal;text-align:start;line-height:150%;writing-mode:lr-tb;text-anchor:start;font-family:tk-arno-pro">The Creator</tspan><tspan
         x="545.18628"
         y="925.47113"
         id="tspan6213"
         style="font-size:28px;font-style:normal;font-variant:normal;font-weight:400;font-stretch:normal;text-align:start;line-height:150%;writing-mode:lr-tb;text-anchor:start;font-family:tk-arno-pro">A God</tspan><tspan
         x="545.18628"
         y="967.47113"
         id="tspan6217"
         style="font-size:28px;font-style:normal;font-variant:normal;font-weight:400;font-stretch:normal;text-align:start;line-height:150%;writing-mode:lr-tb;text-anchor:start;font-family:tk-arno-pro">Love Energy</tspan></text>
  </g>
  <g
     id="layer3"
     style="display:inline">
    <text
       x="90.509666"
       y="837.40173"
       id="text7935"
       xml:space="preserve"
       style="font-size:40px;font-style:normal;font-variant:normal;font-weight:600;font-stretch:normal;line-height:125%;letter-spacing:0px;word-spacing:0px;fill:#000000;fill-opacity:1;stroke:none;font-family:tk-arno-pro"><tspan
         x="90.509666"
         y="837.40173"
         id="tspan7937" /></text>
    <text
       x="71.333328"
       y="100.36218"
       id="text6185"
       xml:space="preserve"
       style="font-size:40px;font-style:normal;font-variant:normal;font-weight:600;font-stretch:normal;text-align:start;line-height:125%;letter-spacing:0px;word-spacing:0px;writing-mode:lr-tb;text-anchor:start;fill:#000000;fill-opacity:1;stroke:nonefont-family:tk-arno-pro"><tspan
         x="71.333328"
         y="100.36218"
         id="tspan6189"
         style="font-size:40px;font-style:normal;font-variant:normal;font-weight:600;font-stretch:normal;text-align:start;line-height:125%;writing-mode:lr-tb;text-anchor:startfont-family:tk-arno-pro">Diagram: The Tree of Life</tspan></text>
  </g>
  <path
     d="m 409.82675,662.72497 19.00982,55.69035"
     id="path7575-7-6-7-8-3"
     style="fill:#00ffff;stroke:#00161d;stroke-width:1;stroke-linecap:butt;stroke-linejoin:miter;stroke-miterlimit:4;stroke-opacity:1;stroke-dasharray:1, 4;stroke-dashoffset:0" />
  <path
     d="m 564.00002,304.36218 a 23.333334,17.333334 0 1 1 -46.66667,0 23.333334,17.333334 0 1 1 46.66667,0 z"
     transform="matrix(1.0537521,0,0,1.2262048,-1.2352307,-136.48539)"
     id="path7688"
     style="fill:none;stroke:#00161d;stroke-width:0.87972975;stroke-linecap:round;stroke-miterlimit:4;stroke-opacity:1;stroke-dasharray:0.87972973, 3.51891891;stroke-dashoffset:0" />
  <path
     d="m 564.00002,304.36218 a 23.333334,17.333334 0 1 1 -46.66667,0 23.333334,17.333334 0 1 1 46.66667,0 z"
     transform="matrix(1.0537521,0,0,1.2262048,54.137336,-21.266467)"
     id="path7688-6"
     style="fill:none;stroke:#00161d;stroke-width:0.87972975;stroke-linecap:round;stroke-miterlimit:4;stroke-opacity:1;stroke-dasharray:0.87972973, 3.51891891;stroke-dashoffset:0" />
  <path
     d="m 564.00002,304.36218 a 23.333334,17.333334 0 1 1 -46.66667,0 23.333334,17.333334 0 1 1 46.66667,0 z"
     transform="matrix(1.0537521,0,0,1.2262048,72.062203,101.40021)"
     id="path7688-6-4"
     style="fill:none;stroke:#00161d;stroke-width:0.87972975;stroke-linecap:round;stroke-miterlimit:4;stroke-opacity:1;stroke-dasharray:0.87972973, 3.51891891;stroke-dashoffset:0" />
  <path
     d="m 564.00002,304.36218 a 23.333334,17.333334 0 1 1 -46.66667,0 23.333334,17.333334 0 1 1 46.66667,0 z"
     transform="matrix(1.0537521,0,0,1.2262048,50.634114,217.30546)"
     id="path7688-6-4-4"
     style="fill:none;stroke:#00161d;stroke-width:0.87972975;stroke-linecap:round;stroke-miterlimit:4;stroke-opacity:1;stroke-dasharray:0.87972973, 3.51891891;stroke-dashoffset:0" />
  <path
     d="m 564.00002,304.36218 a 23.333334,17.333334 0 1 1 -46.66667,0 23.333334,17.333334 0 1 1 46.66667,0 z"
     transform="matrix(1.0537521,0,0,1.2262048,-10.146936,315.78262)"
     id="path7688-6-4-4-1"
     style="fill:none;stroke:#00161d;stroke-width:0.87972975;stroke-linecap:round;stroke-miterlimit:4;stroke-opacity:1;stroke-dasharray:0.87972973, 3.51891891;stroke-dashoffset:0" />
  <path
     d="m 564.00002,304.36218 a 23.333334,17.333334 0 1 1 -46.66667,0 23.333334,17.333334 0 1 1 46.66667,0 z"
     transform="matrix(1.0537521,0,0,1.2262048,-132.30057,366.81205)"
     id="path7688-6-4-4-1-9"
     style="fill:none;stroke:#00161d;stroke-width:0.87972975;stroke-linecap:round;stroke-miterlimit:4;stroke-opacity:1;stroke-dasharray:0.87972973, 3.51891891;stroke-dashoffset:0" />
  <path
     d="M 537.66666,675.69552 C 448,616.69552 448,616.69552 448,616.69552"
     id="path28849"
     style="fill:none;stroke:#00161d;stroke-width:1;stroke-linecap:butt;stroke-linejoin:miter;stroke-miterlimit:4;stroke-opacity:1;stroke-dasharray:1, 3;stroke-dashoffset:0" />
</svg>
